<?xml version="1.0" encoding="UTF-8"?>
<svg width="17px" height="17px" viewBox="0 0 17 17" version="1.1" xmlns="http://www.w3.org/2000/svg" xmlns:xlink="http://www.w3.org/1999/xlink">
    <!-- Generator: Sketch 58 (84663) - https://sketch.com -->
    <title>Icon/arrow-right@1.5x</title>
    <desc>Created with Sketch.</desc>
    <defs>
        <path d="M2.83333333,2.125 L6.61583333,2.125 C7.00703503,2.125 7.32416667,2.44213164 7.32416667,2.83333333 C7.32416667,3.19193489 7.057688,3.48829702 6.71194997,3.53520042 L6.61583333,3.54166667 L2.83333333,3.54166667 C2.47473178,3.54166667 2.17836965,3.80814533 2.13146625,4.15388336 L2.125,4.25 L2.125,14.1666667 C2.125,14.5252682 2.39147867,14.8216304 2.7372167,14.8685338 L2.83333333,14.875 L12.75,14.875 C13.1086016,14.875 13.4049637,14.6085213 13.4518671,14.2627833 L13.4583333,14.1666667 L13.4583333,10.3841667 C13.4583333,9.99296497 13.775465,9.67583333 14.1666667,9.67583333 C14.5252682,9.67583333 14.8216304,9.942312 14.8685338,10.28805 L14.875,10.3841667 L14.875,14.1666667 C14.875,15.2892455 14.0045366,16.2085166 12.9017588,16.2863312 L12.75,16.2916667 L2.83333333,16.2916667 C1.71075455,16.2916667 0.791483382,15.4212033 0.713668836,14.3184255 L0.708333333,14.1666667 L0.708333333,4.25 C0.708333333,3.12742122 1.57879673,2.20815005 2.68157451,2.1303355 L2.83333333,2.125 L6.61583333,2.125 Z M13.2508673,0.915799363 L16.0842006,3.7491327 C16.360822,4.02575407 16.360822,4.47424593 16.0842006,4.7508673 L9.0008673,11.8342006 C8.86802904,11.9670389 8.68786168,12.0416667 8.5,12.0416667 L5.66666667,12.0416667 C5.27546497,12.0416667 4.95833333,11.724535 4.95833333,11.3333333 L4.95833333,8.5 C4.95833333,8.31213832 5.0329611,8.13197096 5.16579936,7.9991327 L12.2491327,0.915799363 C12.5257541,0.63917799 12.9742459,0.63917799 13.2508673,0.915799363 Z M12.75,2.41840127 L6.375,8.79340127 L6.375,10.625 L8.20659873,10.625 L14.5815987,4.25 L12.75,2.41840127 Z" id="path-1"></path>
    </defs>
    <g id="Page-1" stroke="none" stroke-width="1" fill="none" fill-rule="evenodd">
        <g id="Profile-Family-Member-Partial-Access" transform="translate(-42.000000, -118.000000)">
            <g id="Group-2" transform="translate(32.000000, 115.000000)">
                <g id="Icon/edit" transform="translate(10.000000, 3.000000)">
                    <mask id="mask-2" fill="white">
                        <use xlink:href="#path-1"></use>
                    </mask>
                    <use id="Shape" fill="#ED008B" fill-rule="evenodd" xlink:href="#path-1"></use>
                </g>
            </g>
        </g>
    </g>
</svg>