<svg xmlns="http://www.w3.org/2000/svg" xmlns:xlink="http://www.w3.org/1999/xlink" width="580" height="72" viewBox="0 0 580 72">
  <defs>
    <polygon id="centivo-logo-new-a" points=".06 .769 71.558 .769 71.558 54.94 .06 54.94"/>
  </defs>
  <g fill="none" fill-rule="evenodd">
    <path fill="#139C90" d="M159.685 54.184C159.125 54.978 158.545 55.755 157.953 56.513 157.36 57.278 156.724 57.999 156.045 58.676 154.182 60.654 151.979 62.374 149.437 63.844 148.249 64.578 147.008 65.226 145.707 65.79 144.406 66.358 143.052 66.837 141.64 67.236 138.76 68.022 135.878 68.42 132.997 68.42 128.592 68.42 124.437 67.571 120.542 65.878 116.642 64.183 113.227 61.867 110.29 58.93 107.41 56.049 105.121 52.662 103.427 48.762 101.733 44.863 100.886 40.713 100.886 36.309 100.886 31.902 101.733 27.749 103.427 23.849 105.121 20.01 107.41 16.594 110.29 13.601 113.283 10.717 116.699 8.429 120.542 6.737 124.437 5.041 128.592 4.195 132.997 4.195 135.878 4.195 138.76 4.59 141.64 5.379 144.464 6.173 147.06 7.272 149.437 8.687 150.678 9.42 151.852 10.226 152.954 11.1 154.053 11.978 155.085 12.892 156.045 13.855 157.457 15.321 158.674 16.816 159.685 18.342 160.084 18.967 160.169 19.575 159.943 20.167 159.717 20.759 159.266 21.199 158.586 21.48L152.317 24.022C151.697 24.305 151.004 24.349 150.241 24.147 149.477 23.95 148.869 23.567 148.418 23.003 148.136 22.725 147.854 22.427 147.572 22.113 147.29 21.803 147.008 21.509 146.724 21.223 146.102 20.602 145.467 20.039 144.818 19.531 144.168 19.019 143.475 18.544 142.742 18.089 142.009 17.642 141.243 17.243 140.454 16.904 139.662 16.566 138.871 16.256 138.081 15.974 136.441 15.462 134.75 15.208 132.997 15.208 130.23 15.208 127.575 15.772 125.029 16.904 122.548 18.089 120.429 19.644 118.679 21.565 116.872 23.539 115.428 25.77 114.358 28.256 113.283 30.802 112.747 33.485 112.747 36.309 112.747 39.187 113.283 41.87 114.358 44.355 115.428 46.845 116.872 49.073 118.679 51.05 120.429 53.028 122.548 54.555 125.029 55.623 127.462 56.811 130.113 57.403 132.997 57.403 134.75 57.403 136.441 57.149 138.081 56.642 138.871 56.36 139.662 56.049 140.454 55.711 141.243 55.373 142.009 54.978 142.742 54.523 143.475 54.072 144.168 53.576 144.818 53.04 145.467 52.504 146.102 51.924 146.724 51.304 147.008 51.022 147.29 50.728 147.572 50.414 147.854 50.104 148.136 49.805 148.418 49.524 148.869 48.959 149.477 48.565 150.241 48.339 151.004 48.114 151.697 48.142 152.317 48.424L158.586 50.965C159.266 51.248 159.717 51.699 159.943 52.32 160.169 52.944 160.084 53.564 159.685 54.184M189.678 18.342L189.678 28.599C189.678 29.332 189.929 29.952 190.437 30.459 190.947 30.971 191.569 31.225 192.302 31.225L217.044 31.225C217.777 31.225 218.402 31.479 218.905 31.986 219.417 32.494 219.672 33.118 219.672 33.852L219.672 39.356C219.672 40.093 219.417 40.713 218.905 41.221 218.402 41.729 217.777 41.983 217.044 41.983L192.302 41.983C191.569 41.983 190.947 42.237 190.437 42.748 189.929 43.255 189.678 43.875 189.678 44.609L189.678 53.93C189.678 54.664 189.929 55.285 190.437 55.795 190.947 56.303 191.569 56.557 192.302 56.557L220.855 56.557C221.592 56.557 222.212 56.811 222.72 57.323 223.232 57.826 223.485 58.451 223.485 59.184L223.485 64.606C223.485 65.343 223.232 65.963 222.72 66.471 222.212 66.978 221.592 67.236 220.855 67.236L180.439 67.236C179.706 67.236 179.086 66.978 178.578 66.471 178.066 65.963 177.812 65.343 177.812 64.606L177.812 7.836C177.812 7.104 178.066 6.483 178.578 5.972 179.086 5.468 179.706 5.214 180.439 5.214L220.855 5.214C221.592 5.214 222.212 5.468 222.72 5.972 223.232 6.483 223.485 7.104 223.485 7.836L223.485 13.09C223.485 13.827 223.232 14.447 222.72 14.955 222.212 15.462 221.592 15.716 220.855 15.716L192.302 15.716C191.569 15.716 190.947 15.974 190.437 16.481 189.929 16.989 189.678 17.609 189.678 18.342M256.483 33.001L256.483 64.606C256.483 65.343 256.232 65.963 255.72 66.471 255.212 66.978 254.592 67.236 253.855 67.236L247.164 67.236C246.487 67.236 245.891 66.978 245.385 66.471 244.874 65.963 244.618 65.343 244.618 64.606L244.618 6.652C244.618 5.915 244.973 5.48 245.682 5.335 246.387 5.198 246.995 5.351 247.503 5.802L284.7 40.967C285.264 41.475 285.729 41.644 286.098 41.475 286.464 41.306 286.649 40.855 286.649 40.122L286.649 7.921C286.649 7.188 286.903 6.567 287.411 6.06 287.919 5.548 288.539 5.295 289.272 5.295L295.882 5.295C296.616 5.295 297.24 5.548 297.748 6.06 298.255 6.567 298.511 7.188 298.511 7.921L298.511 65.79C298.511 66.527 298.157 66.966 297.454 67.103 296.745 67.245 296.108 67.091 295.544 66.64L258.433 32.071C257.867 31.62 257.402 31.479 257.033 31.648 256.667 31.817 256.483 32.269 256.483 33.001M361.065 15.716L348.609 15.716C347.872 15.716 347.252 15.974 346.744 16.481 346.237 16.989 345.983 17.609 345.983 18.342L345.983 64.606C345.983 65.343 345.729 65.963 345.217 66.471 344.71 66.978 344.089 67.236 343.356 67.236L336.746 67.236C336.012 67.236 335.392 66.978 334.882 66.471 334.374 65.963 334.12 65.343 334.12 64.606L334.12 18.342C334.12 17.609 333.866 16.989 333.358 16.481 332.846 15.974 332.226 15.716 331.493 15.716L318.953 15.716C318.215 15.716 317.595 15.462 317.089 14.955 316.58 14.447 316.322 13.827 316.322 13.09L316.322 7.836C316.322 7.104 316.58 6.483 317.089 5.972 317.595 5.468 318.215 5.214 318.953 5.214L361.065 5.214C361.797 5.214 362.419 5.468 362.928 5.972 363.437 6.483 363.691 7.104 363.691 7.836L363.691 13.09C363.691 13.827 363.437 14.447 362.928 14.955 362.419 15.462 361.797 15.716 361.065 15.716M392.433 67.236L385.743 67.236C385.009 67.236 384.397 66.978 383.921 66.471 383.442 65.963 383.201 65.343 383.201 64.606L383.201 7.921C383.201 7.188 383.442 6.567 383.921 6.06 384.397 5.548 385.009 5.295 385.743 5.295L392.433 5.295C393.17 5.295 393.791 5.548 394.302 6.06 394.808 6.567 395.062 7.188 395.062 7.921L395.062 64.606C395.062 65.343 394.808 65.963 394.302 66.471 393.791 66.978 393.17 67.236 392.433 67.236M471.953 7.667L444.837 66.132C444.555 66.752 444.02 67.063 443.23 67.063 442.437 67.063 441.901 66.752 441.619 66.132L414.589 7.667C414.305 6.991 414.305 6.427 414.589 5.972 414.876 5.524 415.35 5.295 416.031 5.295L423.909 5.295C424.644 5.295 425.377 5.524 426.11 5.972 426.847 6.427 427.355 6.991 427.637 7.667L442.128 38.848C442.409 39.469 442.775 39.779 443.23 39.779 443.677 39.779 444.048 39.469 444.331 38.848L458.82 7.667C459.102 6.991 459.61 6.427 460.347 5.972 461.076 5.524 461.811 5.295 462.548 5.295L470.425 5.295C471.163 5.295 471.667 5.524 471.953 5.972 472.234 6.427 472.234 6.991 471.953 7.667M513.149 15.124C510.332 15.124 507.693 15.704 505.24 16.86 502.791 18.02 500.647 19.559 498.815 21.48 496.982 23.402 495.532 25.645 494.46 28.216 493.388 30.786 492.857 33.453 492.857 36.22 492.857 39.046 493.388 41.729 494.46 44.271 495.532 46.813 496.982 49.06 498.815 51.006 500.647 52.956 502.791 54.511 505.24 55.666 507.693 56.823 510.332 57.403 513.149 57.403 515.965 57.403 518.602 56.823 521.051 55.666 523.504 54.511 525.647 52.956 527.48 51.006 529.309 49.06 530.763 46.813 531.835 44.271 532.904 41.729 533.442 39.046 533.442 36.22 533.442 33.453 532.904 30.786 531.835 28.216 530.763 25.645 529.309 23.402 527.48 21.48 525.647 19.559 523.504 18.02 521.051 16.86 518.602 15.704 515.965 15.124 513.149 15.124zM513.105 68.42C508.7 68.42 504.548 67.571 500.649 65.878 496.753 64.183 493.348 61.882 490.44 58.97 487.529 56.066 485.227 52.662 483.535 48.762 481.839 44.863 480.993 40.681 480.993 36.22 480.993 31.817 481.839 27.652 483.535 23.724 485.227 19.801 487.529 16.385 490.44 13.472 493.348 10.563 496.753 8.26 500.649 6.567 504.548 4.872 508.7 4.022 513.105 4.022 517.566 4.022 521.748 4.872 525.647 6.567 529.543 8.26 532.947 10.563 535.857 13.472 538.763 16.385 541.066 19.801 542.761 23.724 544.458 27.652 545.303 31.817 545.303 36.22 545.303 40.681 544.458 44.863 542.761 48.762 541.066 52.662 538.763 56.066 535.857 58.97 532.947 61.882 529.543 64.183 525.647 65.878 521.748 67.571 517.566 68.42 513.105 68.42z"/>
    <path fill="#F1A948" d="M24.816,18.894 L24.816,25.259 L35.811,25.259 L35.811,17.769 L24.874,17.769 C24.836,18.139 24.816,18.514 24.816,18.894"/>
    <path fill="#171534" d="M35.811,54.672 L46.684,54.672 C46.722,54.303 46.741,53.927 46.741,53.547 L46.741,47.182 L35.811,47.182 L35.811,54.672"/>
    <path fill="#D8187E" d="M54.232 36.301L54.232 25.316C53.861 25.279 53.485 25.259 53.105 25.259L46.741 25.259 46.741 36.301 54.232 36.301M17.326 25.316L17.326 36.301 24.816 36.301 24.816 18.894C24.816 18.514 24.836 18.139 24.874 17.769 25.44 12.25 30.114 7.933 35.779 7.933 41.444 7.933 46.118 12.25 46.684 17.769L53.105 17.769C53.467 17.769 53.82 17.802 54.177 17.823 53.617 8.148 45.592.442 35.779.442 25.966.442 17.94 8.148 17.38 17.823 17.36 18.18 17.326 18.533 17.326 18.894L17.326 25.316"/>
    <g transform="translate(0 17)">
      <mask id="centivo-logo-new-b" fill="#fff">
        <use xlink:href="#centivo-logo-new-a"/>
      </mask>
      <path fill="#139C90" d="M17.326 19.301L17.326 30.124C17.696 30.163 18.072 30.182 18.452 30.182L24.816 30.182 24.816 19.301 17.326 19.301M54.232 30.124L54.232 19.301 46.741 19.301 46.741 36.547C46.741 36.927 46.722 37.303 46.684 37.672 46.119 43.191 41.444 47.51 35.779 47.51 30.114 47.51 25.439 43.191 24.874 37.672L18.452 37.672C18.09 37.672 17.737 37.639 17.38 37.619 17.94 47.294 25.966 55 35.779 55 45.593 55 53.618 47.294 54.177 37.619 54.198 37.262 54.232 36.91 54.232 36.547L54.232 30.124" mask="url(#centivo-logo-new-b)"/>
      <path fill="#171534" d="M54.177,0.823 C53.82,0.802 53.467,0.769 53.105,0.769 L35.811,0.769 L35.811,8.259 L53.105,8.259 C53.485,8.259 53.861,8.279 54.232,8.316 C59.749,8.882 64.067,13.556 64.067,19.221 C64.067,24.885 59.749,29.559 54.232,30.124 L54.232,36.547 C54.232,36.91 54.198,37.262 54.177,37.619 C63.852,37.059 71.558,29.034 71.558,19.221 C71.558,9.408 63.852,1.383 54.177,0.823" mask="url(#centivo-logo-new-b)"/>
      <path fill="#F1A948" d="M24.874,37.672 L35.811,37.672 L35.811,30.182 L18.452,30.182 C18.072,30.182 17.696,30.163 17.326,30.124 C11.808,29.559 7.49,24.885 7.49,19.221 C7.49,13.556 11.808,8.882 17.326,8.316 L17.326,1.894 C17.326,1.533 17.36,1.18 17.38,0.823 C7.705,1.383 0,9.408 0,19.221 C0,29.034 7.705,37.059 17.38,37.619 C17.737,37.639 18.09,37.672 18.452,37.672 L24.874,37.672" mask="url(#centivo-logo-new-b)"/>
    </g>
    <path fill="#159D8F" d="M569.203,14.636 C570.147,14.636 570.775,13.945 570.775,13.095 C570.775,12.183 570.147,11.554 569.203,11.554 L566.405,11.554 L566.405,14.636 L569.203,14.636 Z M564.109,9.95 C564.109,9.636 564.36,9.353 564.706,9.353 L569.361,9.353 C571.31,9.353 573.228,10.673 573.228,13.064 C573.228,15.297 571.782,16.178 570.838,16.523 C571.404,17.687 571.97,18.881 572.505,20.013 C572.726,20.423 572.411,20.863 571.97,20.863 L570.555,20.863 C570.303,20.863 570.084,20.643 569.99,20.423 L568.418,16.711 L566.466,16.711 L566.466,20.265 C566.466,20.58 566.216,20.863 565.87,20.863 L564.706,20.863 C564.36,20.863 564.109,20.58 564.109,20.265 L564.109,9.95 Z M568.166,24.259 C573.228,24.259 577.285,20.171 577.285,15.139 C577.285,10.077 573.228,6.02 568.166,6.02 C563.133,6.02 559.046,10.077 559.046,15.139 C559.046,20.171 563.133,24.259 568.166,24.259 Z M568.166,3.818 C574.392,3.818 579.486,8.913 579.486,15.139 C579.486,21.366 574.392,26.429 568.166,26.429 C561.939,26.429 556.876,21.366 556.876,15.139 C556.876,8.913 561.939,3.818 568.166,3.818 Z"/>
  </g>
</svg>
