<?xml version="1.0" encoding="UTF-8"?>
<svg width="66px" height="64px" viewBox="0 0 66 64" version="1.1" xmlns="http://www.w3.org/2000/svg" xmlns:xlink="http://www.w3.org/1999/xlink">
    <!-- Generator: Sketch 61 (89581) - https://sketch.com -->
    <title>Icon/check-circle@3x</title>
    <desc>Created with Sketch.</desc>
    <defs>
        <path d="M7.47479721,13.7519735 C16.4427274,3.25950685 31.2438637,-0.084614235 43.851676,5.53309863 C45.2810147,6.16997474 45.9234325,7.84497279 45.2865564,9.27431149 C44.6496803,10.7036502 42.9746823,11.346068 41.5453436,10.7091919 C31.2298608,6.11288141 19.1198402,8.84898048 11.7824428,17.4337259 C4.44504535,26.0184713 3.62816095,38.4068343 9.77477903,47.8807111 C15.9213971,57.3545879 27.5672913,61.6571438 38.3969922,58.4551394 C49.2266932,55.253135 56.6603865,45.3093409 56.6668431,34.017812 L56.6668431,34.017812 L56.6668431,31.382812 C56.6668431,29.8180052 57.9353696,28.5494786 59.5001764,28.5494786 C61.0649832,28.5494786 62.3335098,29.8180052 62.3335098,31.382812 L62.3335098,31.382812 L62.3335098,34.019432 C62.3256173,47.8221696 53.2399921,59.9756957 40.003691,63.8892566 C26.7673898,67.8028176 12.5335192,62.5441381 5.02098598,50.9649554 C-2.49154722,39.3857727 -1.49313296,24.2444401 7.47479721,13.7519735 Z M60.3300406,6.51434274 C61.436526,5.40785724 63.2304935,5.40785724 64.336979,6.51434274 C65.4434645,7.62082823 65.4434645,9.41479567 64.336979,10.5212812 L64.336979,10.5212812 L33.1703123,41.6879478 C32.0638268,42.7944333 30.2698594,42.7944333 29.1633739,41.6879478 L29.1633739,41.6879478 L20.6633739,33.1879478 C19.5568884,32.0814623 19.5568884,30.2874949 20.6633739,29.1810094 C21.7698594,28.0745239 23.5638268,28.0745239 24.6703123,29.1810094 L24.6703123,29.1810094 L31.1668431,35.6775402 Z" id="path-1"></path>
    </defs>
    <g id="Page-1" stroke="none" stroke-width="1" fill="none" fill-rule="evenodd">
        <g id="Success-modal" transform="translate(-764.000000, -206.000000)">
            <g id="Modal" transform="translate(508.000000, 140.000000)">
                <g id="Icon/check-circle" transform="translate(256.000000, 64.000000)">
                    <mask id="mask-2" fill="white">
                        <use xlink:href="#path-1"></use>
                    </mask>
                    <use id="Shape" fill="#00A69E" fill-rule="nonzero" xlink:href="#path-1"></use>
                </g>
            </g>
        </g>
    </g>
</svg>