<?xml version="1.0" encoding="UTF-8"?>
<svg width="466px" height="525px" viewBox="0 0 466 525" version="1.1" xmlns="http://www.w3.org/2000/svg" xmlns:xlink="http://www.w3.org/1999/xlink">
    <!-- Generator: Sketch 47.1 (45422) - http://www.bohemiancoding.com/sketch -->
    <title>ForumSprite_WAP_Nov</title>
    <desc>Created with Sketch.</desc>
    <defs></defs>
    <g id="Page-1" stroke="none" stroke-width="1" fill="none" fill-rule="evenodd">
        <g id="ForumSprite_WAP_Nov">
            <g id="fws_V0">
                <g id="1488546687_facebook_circle" fill-rule="nonzero">
                    <g id="Layer_1">
                        <circle id="Oval" fill="#4E71A8" cx="13" cy="13" r="13"></circle>
                        <path d="M16.1958333,10.5625 L14.0291667,10.5625 L14.0291667,9.15416667 C14.0291667,8.6125 14.4083333,8.50416667 14.625,8.50416667 L16.1416667,8.50416667 L16.1416667,6.12083333 L14.0291667,6.12083333 C11.6458333,6.12083333 11.1583333,7.90833333 11.1583333,8.99166667 L11.1583333,10.5625 L9.80416667,10.5625 L9.80416667,13 L11.1583333,13 L11.1583333,19.8791667 L14.0291667,19.8791667 L14.0291667,13 L15.9791667,13 L16.1958333,10.5625 Z" id="Shape" fill="#FFFFFF"></path>
                    </g>
                </g>
                <g id="noun_931572_cc" transform="translate(0.000000, 300.000000)">
                    <path d="M3.95571429,0.179259259 C3.98,0.102222222 4.02,0.102222222 4.04428571,0.179259259 L4.91,2.94222222 C4.93731213,3.02663509 5.01142389,3.08530428 5.09714286,3.09037037 L7.89857143,3.09037037 C7.97714286,3.09037037 7.99,3.12888889 7.92571429,3.17777778 L5.65857143,4.87703704 C5.59288163,4.93141055 5.56478139,5.02116478 5.58714286,5.10518519 L6.45285714,7.86814815 C6.47714286,7.94518519 6.44428571,7.97037037 6.38142857,7.92148148 L4.11571429,6.21481481 C4.04553127,6.16675613 3.95446873,6.16675613 3.88428571,6.21481481 L1.61714286,7.92296296 C1.55428571,7.97037037 1.52142857,7.94666667 1.54571429,7.86962963 L2.41142857,5.10666667 C2.43379003,5.02264626 2.4056898,4.93289204 2.34,4.87851852 L0.0742857143,3.17037037 C0.0114285714,3.12296296 0.0228571429,3.08296296 0.101428571,3.08296296 L2.90285714,3.08296296 C2.98857611,3.07789687 3.06268787,3.01922768 3.09,2.93481481 L3.95571429,0.179259259 Z" id="Shape" fill="#EEBF03" fill-rule="nonzero"></path>
                    <path d="M3.95571429,0.179259259 C3.98,0.102222222 4.02,0.102222222 4.04428571,0.179259259 L4.91,2.94222222 C4.93731213,3.02663509 5.01142389,3.08530428 5.09714286,3.09037037 L7.89857143,3.09037037 C7.97714286,3.09037037 7.99,3.12888889 7.92571429,3.17777778 L5.65857143,4.87703704 C5.59288163,4.93141055 5.56478139,5.02116478 5.58714286,5.10518519 L6.45285714,7.86814815 C6.47714286,7.94518519 6.44428571,7.97037037 6.38142857,7.92148148 L4.11571429,6.21481481 C4.04553127,6.16675613 3.95446873,6.16675613 3.88428571,6.21481481 L1.61714286,7.92296296 C1.55428571,7.97037037 1.52142857,7.94666667 1.54571429,7.86962963 L2.41142857,5.10666667 C2.43379003,5.02264626 2.4056898,4.93289204 2.34,4.87851852 L0.0742857143,3.17037037 C0.0114285714,3.12296296 0.0228571429,3.08296296 0.101428571,3.08296296 L2.90285714,3.08296296 C2.98857611,3.07789687 3.06268787,3.01922768 3.09,2.93481481 L3.95571429,0.179259259 Z" id="Shape" stroke="#EEBF03" stroke-width="0.571428571" stroke-linecap="round"></path>
                </g>
                <g id="Group-20" transform="translate(0.000000, 347.000000)" fill="#2BB700">
                    <path d="M3.37122393,5.49077961 C4.71828296,5.49077961 5.81439409,4.4224229 5.81439409,3.10987038 C5.81439409,1.79731786 4.71828296,0.729316092 3.37122393,0.729316092 C2.02471442,0.729316092 0.928786472,1.79714039 0.928786472,3.10987038 C0.928786472,4.4224229 2.02453125,5.49077961 3.37122393,5.49077961 Z" id="Shape"></path>
                    <path d="M5.92521415,4.84390914 C5.36158882,5.6300919 4.42776955,6.14581359 3.37122393,6.14581359 C2.32438652,6.14581359 1.39881006,5.63843289 0.833536174,4.86396302 C0.403078094,5.23203142 0.151580672,5.70107906 0.151580672,6.19745675 L0.151580672,8.93188201 L6.63061587,8.93188201 L6.63061587,6.19745675 C6.63079905,5.69007605 6.37032612,5.21410716 5.92521415,4.84390914 Z" id="Shape"></path>
                </g>
                <path d="M8.30843729,371 C3.72660085,371 0,374.633436 0,379.100726 C0,383.568026 3.72660085,387.201453 8.30843729,387.201453 C10.3946555,387.201453 12.3008611,386.444194 13.7608493,385.202459 L21.3709481,392.622305 C21.5826803,392.834824 21.971993,392.841653 22.1856763,392.631034 C22.3993593,392.420388 22.3970126,392.032028 22.1767232,391.827945 L14.5755775,384.416828 C15.8468881,382.993892 16.6168746,381.132766 16.6168746,379.100726 C16.6168746,374.633436 12.8902737,371 8.30843729,371 L8.30843729,371 Z M8.30843729,372.117342 C12.2709339,372.117342 15.4708832,375.237292 15.4708832,379.100726 C15.4708832,382.964158 12.2709339,386.084111 8.30843729,386.084111 C4.3459407,386.084111 1.14599135,382.964158 1.14599135,379.100726 C1.14599135,375.237292 4.3459407,372.117342 8.30843729,372.117342 L8.30843729,372.117342 Z" id="Shape" fill="#BDBDBD"></path>
                <g id="noun_707176_cc" transform="translate(0.000000, 408.000000)" fill="#D1D1D1">
                    <g id="Group">
                        <path d="M6.56989947,0.00662174565 C3.03075802,0.00662174565 0.161801449,2.79889753 0.161801449,6.24331087 C0.161801449,9.68772422 3.03075802,12.48 6.56989947,12.48 C10.1090409,12.48 12.9779975,9.68772422 12.9779975,6.24331087 C12.9779975,2.79889753 10.1090409,0.00662174565 6.56989947,0.00662174565 Z M4.82295735,6.24334762 C4.82295735,6.33387551 4.8092096,6.42110348 4.78509468,6.50415154 L6.96715643,7.76340219 C7.14587725,7.57354662 7.40156296,7.45375941 7.68643448,7.45375941 C8.22631559,7.45375941 8.66399003,7.88098945 8.66399003,8.40798717 C8.66399003,8.93498489 8.22631559,9.36221493 7.68643448,9.36221493 C7.14655337,9.36221493 6.70887893,8.93498489 6.70887893,8.40798717 C6.70887893,8.31745928 6.72262669,8.23023131 6.7467416,8.14718325 L4.56467985,6.8880426 C4.38595903,7.07789817 4.13027332,7.19768538 3.8454018,7.19768538 C3.30552069,7.19768538 2.86784625,6.77045534 2.86784625,6.24345762 C2.86784625,5.7164599 3.30552069,5.28922986 3.8454018,5.28922986 C4.12554049,5.28922986 4.37739486,5.40483716 4.55566493,5.58919287 L6.7501222,4.35249169 C6.72352818,4.26581371 6.70887893,4.17407585 6.70887893,4.07892807 C6.70887893,3.55193035 7.14655337,3.12470031 7.68643448,3.12470031 C8.22631559,3.12470031 8.66399003,3.55193035 8.66399003,4.07892807 C8.66399003,4.60592578 8.22631559,5.03315583 7.68643448,5.03315583 C7.4062958,5.03315583 7.15444143,4.91754852 6.97617135,4.73319282 L4.7816014,5.969784 C4.80819542,6.05646198 4.82295735,6.14819984 4.82295735,6.24334762 Z" id="Shape"></path>
                    </g>
                </g>
                <path d="M5.70406452,436 C2.55845606,436 0,438.494494 0,441.561463 C0,444.628437 2.55845606,447.122926 5.70406452,447.122926 C7.13633428,447.122926 8.44501839,446.603038 9.44735687,445.750539 L14.6719849,450.844551 C14.8173473,450.990453 15.0846256,450.995142 15.2313275,450.850544 C15.3780291,450.705927 15.376418,450.439303 15.2251808,450.299192 L10.0066994,445.211173 C10.8795035,444.234272 11.408129,442.956537 11.408129,441.561463 C11.408129,438.494494 8.84967299,436 5.70406452,436 L5.70406452,436 Z M5.70406452,436.767098 C8.42447215,436.767098 10.6213615,438.909065 10.6213615,441.561463 C10.6213615,444.213859 8.42447215,446.355827 5.70406452,446.355827 C2.98365689,446.355827 0.78676752,444.213859 0.78676752,441.561463 C0.78676752,438.909065 2.98365689,436.767098 5.70406452,436.767098 L5.70406452,436.767098 Z" id="Shape" fill="#BDBDBD"></path>
                <g id="noun_1014232_cc" transform="translate(0.000000, 322.000000)" fill-rule="nonzero" fill="#36BAC2">
                    <path d="M7.95673077,1.41826923 C6.15384615,-0.384615385 3.22115385,-0.384615385 1.41826923,1.41826923 C-0.384615385,3.22115385 -0.384615385,6.15384615 1.41826923,7.95673077 C2.31971154,8.85817308 3.49759615,9.31490385 4.6875,9.31490385 C5.87740385,9.31490385 7.05528846,8.85817308 7.95673077,7.95673077 C9.75961538,6.15384615 9.75961538,3.22115385 7.95673077,1.41826923 Z M5.22836538,4.92788462 C5.22836538,5.09615385 5.09615385,5.22836538 4.92788462,5.22836538 L3.00480769,5.22836538 C2.83653846,5.22836538 2.70432692,5.09615385 2.70432692,4.92788462 C2.70432692,4.75961538 2.83653846,4.62740385 3.00480769,4.62740385 L4.62740385,4.62740385 L4.62740385,2.52403846 C4.62740385,2.35576923 4.75961538,2.22355769 4.92788462,2.22355769 C5.09615385,2.22355769 5.22836538,2.35576923 5.22836538,2.52403846 L5.22836538,4.92788462 Z" id="Shape"></path>
                </g>
                <g id="1488548822_google_circle" transform="translate(0.000000, 41.000000)" fill-rule="nonzero">
                    <g id="Layer_1">
                        <circle id="Oval" fill="#E3411F" cx="13" cy="13" r="13"></circle>
                        <g id="Group" transform="translate(6.500000, 5.958333)" fill="#FFFFFF">
                            <path d="M6.93333333,8.01666667 C6.55416667,7.74583333 5.85,7.09583333 5.85,6.77083333 C5.85,6.3375 5.95833333,6.12083333 6.60833333,5.57916667 C7.25833333,5.0375 7.74583333,4.33333333 7.74583333,3.46666667 C7.74583333,2.4375 7.3125,1.4625 6.44583333,1.08333333 L7.74583333,1.08333333 L8.66666667,0.433333333 L4.60416667,0.433333333 C2.7625,0.433333333 1.02916667,1.84166667 1.02916667,3.4125 C1.02916667,5.0375 2.275,6.39166667 4.11666667,6.39166667 L4.49583333,6.39166667 C4.3875,6.60833333 4.27916667,6.87916667 4.27916667,7.15 C4.27916667,7.58333333 4.55,7.9625 4.82083333,8.2875 L4.11666667,8.2875 C1.84166667,8.2875 0.108333333,9.75 0.108333333,11.2125 C0.108333333,12.675 2.00416667,13.5958333 4.27916667,13.5958333 C6.87916667,13.5958333 8.2875,12.1333333 8.2875,10.6708333 C8.34166667,9.53333333 8.01666667,8.775 6.93333333,8.01666667 Z M4.7125,6.0125 C3.68333333,5.95833333 2.65416667,4.82083333 2.49166667,3.46666667 C2.32916667,2.05833333 3.03333333,1.02916667 4.0625,1.08333333 C5.09166667,1.1375 6.12083333,2.22083333 6.28333333,3.62916667 C6.5,4.92916667 5.79583333,6.0125 4.7125,6.0125 Z M4.33333333,13 C2.7625,13 1.625,12.025 1.625,10.8333333 C1.625,9.64166667 3.03333333,8.66666667 4.60416667,8.72083333 C4.98333333,8.72083333 5.30833333,8.775 5.63333333,8.88333333 C6.5,9.47916667 7.09583333,9.80416667 7.25833333,10.5083333 C7.3125,10.6708333 7.3125,10.7791667 7.3125,10.9416667 C7.3125,12.025 6.5,13 4.33333333,13 Z" id="Shape"></path>
                            <polygon id="Shape" points="11.2666667 6.12083333 11.2666667 4.55 9.96666667 4.55 9.96666667 6.12083333 8.39583333 6.12083333 8.39583333 7.36666667 9.96666667 7.36666667 9.96666667 8.99166667 11.2666667 8.99166667 11.2666667 7.36666667 12.8375 7.36666667 12.8375 6.12083333"></polygon>
                        </g>
                    </g>
                </g>
                <path d="M3.78861283,82 C1.69343084,82 0,83.6965854 0,85.7957307 C0,86.2778037 0.14049523,86.8900854 0.303468362,87.314023 L3.79335452,94.4499998 L7.28324069,87.314023 C7.44712726,86.8899336 7.58670905,86.2780163 7.58670905,85.7957307 C7.58670905,83.6965854 5.88382061,82 3.78861283,82 L3.78861283,82 Z M3.78861283,83.5182923 C5.04183702,83.5182923 6.06936724,84.5398449 6.06936724,85.7957307 C6.06936724,87.0516166 5.04184005,88.0731722 3.78861283,88.0731722 C2.53539623,88.0731722 1.51734181,87.0507056 1.51734181,85.7957307 C1.51734181,84.540771 2.53540078,83.5182923 3.78861283,83.5182923 Z M3.78861283,84.1256092 C2.86283859,84.1256092 2.12427853,84.8675835 2.12427853,85.7957307 C2.12427853,86.723878 2.86284162,87.4658522 3.78861283,87.4658522 C4.71439921,87.4658522 5.46243051,86.7229518 5.46243051,85.7957307 C5.46243051,84.8685096 4.71440224,84.1256092 3.78861283,84.1256092 Z" id="Shape" fill="#B9B9B9" fill-rule="nonzero"></path>
                <g id="noun_837131_cc" transform="translate(0.000000, 109.000000)" fill-rule="nonzero" fill="#9F9F9F">
                    <g id="like">
                        <path d="M5.8575,17.1709476 C5.84222222,15.843771 5.84184028,14.5158249 5.84107639,13.1886484 C5.8403125,11.8614719 5.84336806,10.5335257 5.8575,9.20634921 C5.8575,9.38374218 5.86017361,8.54372294 5.87354167,7.9973064 L0.993819444,7.9973064 C0.5809375,7.9973064 0.261631944,8.14737855 0.0809722222,8.53872054 C0.0519444444,8.599519 0.0267361111,8.66339586 0,8.72727273 L0,17.1051467 C0.0763888889,17.2382876 0.135208333,17.386051 0.231458333,17.5014911 C0.389965278,17.6904281 0.611111111,17.7708514 0.8559375,17.7708514 C2.52465278,17.7708514 4.19375,17.775469 5.86284722,17.7689274 C5.85979167,17.4810967 5.85826389,17.2321308 5.8575,17.1709476 Z" id="Shape"></path>
                        <path d="M19.5009375,7.86993747 C19.3741319,7.36969697 19.0991319,6.97720058 18.6068056,6.8025012 C18.3503895,6.71741033 18.0819412,6.67491202 17.8119792,6.67667148 C16.3789236,6.66551227 14.9454861,6.67243867 13.5124306,6.67282347 C13.3283333,6.67282347 13.3214583,6.66127946 13.3508681,6.48234728 C13.4398611,5.95555556 13.5154861,5.42645503 13.6182292,4.9019721 C13.7572569,4.19201539 13.7748264,3.48744589 13.5399306,2.7974988 C13.3283333,2.17720058 13.0884722,1.56613757 12.8589236,0.952765753 C12.7302083,0.606445406 12.5125,0.352861953 12.1649306,0.205868206 C11.5076042,-0.0727272727 10.8594444,-0.0673400673 10.23,0.264357864 C9.82743056,0.476382876 9.59177083,0.814622415 9.60475694,1.2967773 C9.62309028,1.97556518 9.62805556,2.65512266 9.65555556,3.33352573 C9.66817591,3.55224528 9.61621012,3.76983052 9.50621528,3.95882636 C8.98638889,4.85810486 8.48336806,5.76738817 7.94024306,6.65242905 C7.65951389,7.10841751 7.30736111,7.52015392 6.97850694,7.94497354 C6.96679398,7.96010903 6.9540625,7.97473144 6.9403125,7.98884079 L6.9403125,9.82587783 C6.9403125,12.1436588 6.93369213,14.4615681 6.92045139,16.7796056 C7.36541667,17.0628187 7.84208333,17.1917268 8.37986111,17.1886484 C10.8269792,17.174026 13.2740972,17.1821068 15.7208333,17.1821068 C16.1463194,17.1821068 16.5668403,17.1559404 16.9770486,17.0204906 C17.7917361,16.7511304 18.3035417,16.1154401 18.3680903,15.2561809 C18.3929167,14.9294853 18.3780208,14.6058682 18.2611458,14.2922559 C18.2447222,14.2483886 18.2722222,14.170659 18.3043056,14.1275613 C18.6262847,13.6946609 18.8180208,13.2155844 18.7836458,12.6687831 C18.7721875,12.4802309 18.7133681,12.2924483 18.6556944,12.1108225 C18.6251389,12.0130832 18.6255208,11.9480519 18.6912153,11.8649351 C18.9967708,11.4766715 19.1835417,11.0356902 19.1686458,10.5373737 C19.1617708,10.3022607 19.0754514,10.0698413 19.0315278,9.83549784 C19.0208333,9.77931698 19.0120486,9.6973545 19.0422222,9.66349206 C19.3057639,9.36758057 19.4524306,9.01895142 19.5272917,8.63415103 C19.5335573,8.61965067 19.542649,8.60656538 19.5540278,8.595671 L19.5540278,8.05310245 C19.5372222,7.99191919 19.5173611,7.93150553 19.5009375,7.86993747 Z" id="Shape"></path>
                    </g>
                </g>
                <g id="Group-35" transform="translate(0.000000, 175.000000)" fill-rule="nonzero" fill="#9F9F9F">
                    <path d="M24.1688718,3.42106061 L24.1688718,13.2722727 C24.1688718,14.6080303 23.0668718,15.6933333 21.7105641,15.6933333 L14.9572821,15.6933333 C14.9572821,15.6933333 14.9572821,15.7211616 14.9290256,15.7211616 L11.7925641,18.810101 C11.4817436,19.1162121 10.9448718,18.8935859 10.9448718,18.4761616 L10.9448718,15.6933333 L8.45830769,15.6933333 C7.102,15.6933333 6,14.6080303 6,13.2722727 L6,3.42106061 C6,2.08530303 7.102,1 8.45830769,1 L21.7388205,1 C23.0668718,1 24.1688718,2.08530303 24.1688718,3.42106061 Z M12.3576923,8.34666667 C12.3576923,7.73444444 11.8490769,7.23353535 11.2274359,7.23353535 L11.2274359,7.23353535 C10.6057949,7.23353535 10.0971795,7.73444444 10.0971795,8.34666667 C10.0971795,8.95888889 10.6057949,9.45979798 11.2274359,9.45979798 L11.2274359,9.45979798 C11.8490769,9.45979798 12.3576923,8.95888889 12.3576923,8.34666667 Z M16.2005641,8.34666667 C16.2005641,7.73444444 15.6919487,7.23353535 15.0703077,7.23353535 L15.0703077,7.23353535 C14.4486667,7.23353535 13.9400513,7.73444444 13.9400513,8.34666667 C13.9400513,8.95888889 14.4486667,9.45979798 15.0703077,9.45979798 L15.0703077,9.45979798 C15.6919487,9.45979798 16.2005641,8.95888889 16.2005641,8.34666667 Z M20.0434359,8.34666667 C20.0434359,7.73444444 19.5348205,7.23353535 18.9131795,7.23353535 L18.9131795,7.23353535 C18.2915385,7.23353535 17.7829231,7.73444444 17.7829231,8.34666667 C17.7829231,8.95888889 18.2915385,9.45979798 18.9131795,9.45979798 L18.9131795,9.45979798 C19.5348205,9.45979798 20.0434359,8.95888889 20.0434359,8.34666667 Z" id="Shape"></path>
                    <path d="M26.2452488,6.46919495 C26.2452488,6.77635732 26.4965065,7.02520198 26.8067392,7.02520198 L28.6316411,7.02520198 C28.9418584,7.02520198 29.1931161,6.77635732 29.1931161,6.46919495 L29.1931161,4.24530449 C29.1931161,3.93812682 28.9418584,3.68932805 28.6316411,3.68932805 L27.7304073,3.68932805 C27.5745416,3.68932805 27.4496852,3.56423259 27.4496852,3.41135513 C27.4496852,3.35992173 27.4622466,3.3265711 27.4622466,3.3265711 C27.6672298,2.65379096 28.1851341,2.11452043 28.8491702,1.87548208 C29.0527319,1.78794432 29.1931161,1.59051776 29.1931161,1.36116333 C29.1931161,1.05401626 28.9418584,0.80520219 28.6316411,0.80520219 C28.5558404,0.80520219 28.4842732,0.820470048 28.4183455,0.846859882 L28.3929447,0.856650893 C27.1365633,1.3417037 26.2452488,2.55097004 26.2452488,3.96730097 L26.2452488,6.46919495 Z" id="Shape" transform="translate(27.719182, 3.915202) rotate(180.000000) translate(-27.719182, -3.915202) "></path>
                    <path d="M0.915230769,6.46919495 C0.915230769,6.77635732 1.16648851,7.02520198 1.47672122,7.02520198 L3.30162312,7.02520198 C3.61184037,7.02520198 3.86309811,6.77635732 3.86309811,6.46919495 L3.86309811,4.24530449 C3.86309811,3.93812682 3.61184037,3.68932805 3.30162312,3.68932805 L2.40038931,3.68932805 C2.2445236,3.68932805 2.11966726,3.56423259 2.11966726,3.41135513 C2.11966726,3.35992173 2.1322286,3.3265711 2.1322286,3.3265711 C2.33721178,2.65379096 2.85511607,2.11452043 3.51915219,1.87548208 C3.72271391,1.78794432 3.86309811,1.59051776 3.86309811,1.36116333 C3.86309811,1.05401626 3.61184037,0.80520219 3.30162312,0.80520219 C3.22582245,0.80520219 3.15425524,0.820470048 3.08832751,0.846859882 L3.06292671,0.856650893 C1.80654529,1.3417037 0.915230769,2.55097004 0.915230769,3.96730097 L0.915230769,6.46919495 Z" id="Shape" transform="translate(2.389164, 3.915202) scale(-1, 1) rotate(-180.000000) translate(-2.389164, -3.915202) "></path>
                </g>
                <g id="Group-35-Copy" transform="translate(40.000000, 175.000000)" fill-rule="nonzero" fill="#666666">
                    <path d="M24.1688718,3.42106061 L24.1688718,13.2722727 C24.1688718,14.6080303 23.0668718,15.6933333 21.7105641,15.6933333 L14.9572821,15.6933333 C14.9572821,15.6933333 14.9572821,15.7211616 14.9290256,15.7211616 L11.7925641,18.810101 C11.4817436,19.1162121 10.9448718,18.8935859 10.9448718,18.4761616 L10.9448718,15.6933333 L8.45830769,15.6933333 C7.102,15.6933333 6,14.6080303 6,13.2722727 L6,3.42106061 C6,2.08530303 7.102,1 8.45830769,1 L21.7388205,1 C23.0668718,1 24.1688718,2.08530303 24.1688718,3.42106061 Z M12.3576923,8.34666667 C12.3576923,7.73444444 11.8490769,7.23353535 11.2274359,7.23353535 L11.2274359,7.23353535 C10.6057949,7.23353535 10.0971795,7.73444444 10.0971795,8.34666667 C10.0971795,8.95888889 10.6057949,9.45979798 11.2274359,9.45979798 L11.2274359,9.45979798 C11.8490769,9.45979798 12.3576923,8.95888889 12.3576923,8.34666667 Z M16.2005641,8.34666667 C16.2005641,7.73444444 15.6919487,7.23353535 15.0703077,7.23353535 L15.0703077,7.23353535 C14.4486667,7.23353535 13.9400513,7.73444444 13.9400513,8.34666667 C13.9400513,8.95888889 14.4486667,9.45979798 15.0703077,9.45979798 L15.0703077,9.45979798 C15.6919487,9.45979798 16.2005641,8.95888889 16.2005641,8.34666667 Z M20.0434359,8.34666667 C20.0434359,7.73444444 19.5348205,7.23353535 18.9131795,7.23353535 L18.9131795,7.23353535 C18.2915385,7.23353535 17.7829231,7.73444444 17.7829231,8.34666667 C17.7829231,8.95888889 18.2915385,9.45979798 18.9131795,9.45979798 L18.9131795,9.45979798 C19.5348205,9.45979798 20.0434359,8.95888889 20.0434359,8.34666667 Z" id="Shape"></path>
                    <path d="M26.2452488,6.46919495 C26.2452488,6.77635732 26.4965065,7.02520198 26.8067392,7.02520198 L28.6316411,7.02520198 C28.9418584,7.02520198 29.1931161,6.77635732 29.1931161,6.46919495 L29.1931161,4.24530449 C29.1931161,3.93812682 28.9418584,3.68932805 28.6316411,3.68932805 L27.7304073,3.68932805 C27.5745416,3.68932805 27.4496852,3.56423259 27.4496852,3.41135513 C27.4496852,3.35992173 27.4622466,3.3265711 27.4622466,3.3265711 C27.6672298,2.65379096 28.1851341,2.11452043 28.8491702,1.87548208 C29.0527319,1.78794432 29.1931161,1.59051776 29.1931161,1.36116333 C29.1931161,1.05401626 28.9418584,0.80520219 28.6316411,0.80520219 C28.5558404,0.80520219 28.4842732,0.820470048 28.4183455,0.846859882 L28.3929447,0.856650893 C27.1365633,1.3417037 26.2452488,2.55097004 26.2452488,3.96730097 L26.2452488,6.46919495 Z" id="Shape" transform="translate(27.719182, 3.915202) rotate(180.000000) translate(-27.719182, -3.915202) "></path>
                    <path d="M0.915230769,6.46919495 C0.915230769,6.77635732 1.16648851,7.02520198 1.47672122,7.02520198 L3.30162312,7.02520198 C3.61184037,7.02520198 3.86309811,6.77635732 3.86309811,6.46919495 L3.86309811,4.24530449 C3.86309811,3.93812682 3.61184037,3.68932805 3.30162312,3.68932805 L2.40038931,3.68932805 C2.2445236,3.68932805 2.11966726,3.56423259 2.11966726,3.41135513 C2.11966726,3.35992173 2.1322286,3.3265711 2.1322286,3.3265711 C2.33721178,2.65379096 2.85511607,2.11452043 3.51915219,1.87548208 C3.72271391,1.78794432 3.86309811,1.59051776 3.86309811,1.36116333 C3.86309811,1.05401626 3.61184037,0.80520219 3.30162312,0.80520219 C3.22582245,0.80520219 3.15425524,0.820470048 3.08832751,0.846859882 L3.06292671,0.856650893 C1.80654529,1.3417037 0.915230769,2.55097004 0.915230769,3.96730097 L0.915230769,6.46919495 Z" id="Shape" transform="translate(2.389164, 3.915202) scale(-1, 1) rotate(-180.000000) translate(-2.389164, -3.915202) "></path>
                </g>
                <g id="Group-25" transform="translate(0.000000, 209.000000)" fill-rule="nonzero">
                    <circle id="Oval-2" fill="#000000" opacity="0.699999988" cx="25" cy="25" r="25"></circle>
                    <path d="M13.7500056,24.5501991 C13.7657556,24.9523866 13.9312993,25.4172365 14.2070367,25.7104114 L23.2070347,35.2733592 C23.8168971,35.8214028 24.9863343,36.0476403 25.6679716,35.4139842 C26.3393715,34.7898906 26.3194027,33.5795034 25.6505341,32.9529347 L19.3224106,26.237755 L34.5625009,26.237755 C35.4944507,26.237755 36.2500005,25.4822052 36.2500005,24.5501991 C36.2500005,23.6181931 35.4944507,22.8626433 34.5625009,22.8626433 L19.3224106,22.8626433 L25.6505341,16.1474635 C26.2263653,15.5706199 26.3327902,14.3176515 25.6679716,13.6864141 C25.0033218,13.055233 23.7918658,13.2568892 23.2070347,13.8270953 L14.2070367,23.3899869 C13.8990681,23.7172493 13.7489931,24.1012117 13.7500056,24.5501991 L13.7500056,24.5501991 Z" id="Shape" fill="#FFFFFF" transform="translate(25.000000, 24.547249) rotate(90.000000) translate(-25.000000, -24.547249) "></path>
                </g>
                <path d="M8.03730496,278.978085 C8.03730496,278.767447 7.8687234,278.596809 7.66092199,278.596809 L5.35765957,278.596809 L5.35765957,276.29695 L5.35765957,276.296879 C5.35765957,276.085532 5.18617021,275.914113 4.97496454,275.914113 C4.76361702,275.914113 4.59212766,276.085532 4.59212766,276.296879 L4.59212766,278.976596 C4.59212766,279.188014 4.76361702,279.359433 4.97496454,279.359433 L7.66113475,279.359433 C7.8687234,279.359433 8.03730496,279.188723 8.03730496,278.978085 M9.18673759,278.975674 C9.18673759,281.301773 7.30134752,283.187447 4.97574468,283.187447 C2.65,283.187447 0.764751773,281.301773 0.764751773,278.975674 C0.764751773,276.649574 2.65,274.763901 4.97574468,274.763901 C7.30134752,274.763901 9.18673759,276.649574 9.18673759,278.975674 M9.95134752,278.975674 C9.95134752,276.22766 7.72368794,274 4.97574468,274 C2.22765957,274 0,276.22766 0,278.975674 C0,281.723688 2.22765957,283.951348 4.97574468,283.951348 C7.72368794,283.951348 9.95134752,281.723688 9.95134752,278.975674" id="Shape" fill="#999999" fill-rule="nonzero"></path>
                <path d="M18.1688718,144.421061 L18.1688718,154.272273 C18.1688718,155.60803 17.0668718,156.693333 15.7105641,156.693333 L8.95728205,156.693333 C8.95728205,156.693333 8.95728205,156.721162 8.92902564,156.721162 L5.7925641,159.810101 C5.48174359,160.116212 4.94487179,159.893586 4.94487179,159.476162 L4.94487179,156.693333 L2.45830769,156.693333 C1.102,156.693333 2.84217094e-14,155.60803 2.84217094e-14,154.272273 L2.84217094e-14,144.421061 C2.84217094e-14,143.085303 1.102,142 2.45830769,142 L15.7388205,142 C17.0668718,142 18.1688718,143.085303 18.1688718,144.421061 Z M6.35769231,149.346667 C6.35769231,148.734444 5.84907692,148.233535 5.2274359,148.233535 L5.2274359,148.233535 C4.60579487,148.233535 4.09717949,148.734444 4.09717949,149.346667 C4.09717949,149.958889 4.60579487,150.459798 5.2274359,150.459798 L5.2274359,150.459798 C5.84907692,150.459798 6.35769231,149.958889 6.35769231,149.346667 Z M10.2005641,149.346667 C10.2005641,148.734444 9.69194872,148.233535 9.07030769,148.233535 L9.07030769,148.233535 C8.44866667,148.233535 7.94005128,148.734444 7.94005128,149.346667 C7.94005128,149.958889 8.44866667,150.459798 9.07030769,150.459798 L9.07030769,150.459798 C9.69194872,150.459798 10.2005641,149.958889 10.2005641,149.346667 Z M14.0434359,149.346667 C14.0434359,148.734444 13.5348205,148.233535 12.9131795,148.233535 L12.9131795,148.233535 C12.2915385,148.233535 11.7829231,148.734444 11.7829231,149.346667 C11.7829231,149.958889 12.2915385,150.459798 12.9131795,150.459798 L12.9131795,150.459798 C13.5348205,150.459798 14.0434359,149.958889 14.0434359,149.346667 Z" id="Shape" fill="#9F9F9F" fill-rule="nonzero"></path>
                <path d="M58.1688718,144.421061 L58.1688718,154.272273 C58.1688718,155.60803 57.0668718,156.693333 55.7105641,156.693333 L48.9572821,156.693333 C48.9572821,156.693333 48.9572821,156.721162 48.9290256,156.721162 L45.7925641,159.810101 C45.4817436,160.116212 44.9448718,159.893586 44.9448718,159.476162 L44.9448718,156.693333 L42.4583077,156.693333 C41.102,156.693333 40,155.60803 40,154.272273 L40,144.421061 C40,143.085303 41.102,142 42.4583077,142 L55.7388205,142 C57.0668718,142 58.1688718,143.085303 58.1688718,144.421061 Z M46.3576923,149.346667 C46.3576923,148.734444 45.8490769,148.233535 45.2274359,148.233535 L45.2274359,148.233535 C44.6057949,148.233535 44.0971795,148.734444 44.0971795,149.346667 C44.0971795,149.958889 44.6057949,150.459798 45.2274359,150.459798 L45.2274359,150.459798 C45.8490769,150.459798 46.3576923,149.958889 46.3576923,149.346667 Z M50.2005641,149.346667 C50.2005641,148.734444 49.6919487,148.233535 49.0703077,148.233535 L49.0703077,148.233535 C48.4486667,148.233535 47.9400513,148.734444 47.9400513,149.346667 C47.9400513,149.958889 48.4486667,150.459798 49.0703077,150.459798 L49.0703077,150.459798 C49.6919487,150.459798 50.2005641,149.958889 50.2005641,149.346667 Z M54.0434359,149.346667 C54.0434359,148.734444 53.5348205,148.233535 52.9131795,148.233535 L52.9131795,148.233535 C52.2915385,148.233535 51.7829231,148.734444 51.7829231,149.346667 C51.7829231,149.958889 52.2915385,150.459798 52.9131795,150.459798 L52.9131795,150.459798 C53.5348205,150.459798 54.0434359,149.958889 54.0434359,149.346667 Z" id="Shape-Copy" fill="#666666" fill-rule="nonzero"></path>
                <g id="noun_837131_cc-copy" transform="translate(40.000000, 109.000000)" fill-rule="nonzero" fill="#6899D4">
                    <g id="like">
                        <path d="M5.8575,17.1709476 C5.84222222,15.843771 5.84184028,14.5158249 5.84107639,13.1886484 C5.8403125,11.8614719 5.84336806,10.5335257 5.8575,9.20634921 C5.8575,9.38374218 5.86017361,8.54372294 5.87354167,7.9973064 L0.993819444,7.9973064 C0.5809375,7.9973064 0.261631944,8.14737855 0.0809722222,8.53872054 C0.0519444444,8.599519 0.0267361111,8.66339586 0,8.72727273 L0,17.1051467 C0.0763888889,17.2382876 0.135208333,17.386051 0.231458333,17.5014911 C0.389965278,17.6904281 0.611111111,17.7708514 0.8559375,17.7708514 C2.52465278,17.7708514 4.19375,17.775469 5.86284722,17.7689274 C5.85979167,17.4810967 5.85826389,17.2321308 5.8575,17.1709476 Z" id="Shape"></path>
                        <path d="M19.5009375,7.86993747 C19.3741319,7.36969697 19.0991319,6.97720058 18.6068056,6.8025012 C18.3503895,6.71741033 18.0819412,6.67491202 17.8119792,6.67667148 C16.3789236,6.66551227 14.9454861,6.67243867 13.5124306,6.67282347 C13.3283333,6.67282347 13.3214583,6.66127946 13.3508681,6.48234728 C13.4398611,5.95555556 13.5154861,5.42645503 13.6182292,4.9019721 C13.7572569,4.19201539 13.7748264,3.48744589 13.5399306,2.7974988 C13.3283333,2.17720058 13.0884722,1.56613757 12.8589236,0.952765753 C12.7302083,0.606445406 12.5125,0.352861953 12.1649306,0.205868206 C11.5076042,-0.0727272727 10.8594444,-0.0673400673 10.23,0.264357864 C9.82743056,0.476382876 9.59177083,0.814622415 9.60475694,1.2967773 C9.62309028,1.97556518 9.62805556,2.65512266 9.65555556,3.33352573 C9.66817591,3.55224528 9.61621012,3.76983052 9.50621528,3.95882636 C8.98638889,4.85810486 8.48336806,5.76738817 7.94024306,6.65242905 C7.65951389,7.10841751 7.30736111,7.52015392 6.97850694,7.94497354 C6.96679398,7.96010903 6.9540625,7.97473144 6.9403125,7.98884079 L6.9403125,9.82587783 C6.9403125,12.1436588 6.93369213,14.4615681 6.92045139,16.7796056 C7.36541667,17.0628187 7.84208333,17.1917268 8.37986111,17.1886484 C10.8269792,17.174026 13.2740972,17.1821068 15.7208333,17.1821068 C16.1463194,17.1821068 16.5668403,17.1559404 16.9770486,17.0204906 C17.7917361,16.7511304 18.3035417,16.1154401 18.3680903,15.2561809 C18.3929167,14.9294853 18.3780208,14.6058682 18.2611458,14.2922559 C18.2447222,14.2483886 18.2722222,14.170659 18.3043056,14.1275613 C18.6262847,13.6946609 18.8180208,13.2155844 18.7836458,12.6687831 C18.7721875,12.4802309 18.7133681,12.2924483 18.6556944,12.1108225 C18.6251389,12.0130832 18.6255208,11.9480519 18.6912153,11.8649351 C18.9967708,11.4766715 19.1835417,11.0356902 19.1686458,10.5373737 C19.1617708,10.3022607 19.0754514,10.0698413 19.0315278,9.83549784 C19.0208333,9.77931698 19.0120486,9.6973545 19.0422222,9.66349206 C19.3057639,9.36758057 19.4524306,9.01895142 19.5272917,8.63415103 C19.5335573,8.61965067 19.542649,8.60656538 19.5540278,8.595671 L19.5540278,8.05310245 C19.5372222,7.99191919 19.5173611,7.93150553 19.5009375,7.86993747 Z" id="Shape"></path>
                    </g>
                </g>
            </g>
        </g>
    </g>
</svg>