<?xml version="1.0" encoding="UTF-8"?>
<svg width="18px" height="20px" viewBox="0 0 18 20" version="1.1" xmlns="http://www.w3.org/2000/svg" xmlns:xlink="http://www.w3.org/1999/xlink">
    <title>Icon/search</title>
    <defs>
        <path d="M10,0 C14.6023729,0 18.3333333,3.73096034 18.3333333,8.33333321 C18.3333333,11.1430037 16.831332,13.8966728 14.3549606,16.5106204 C13.5058351,17.4069196 12.5985442,18.2234814 11.6909807,18.9461708 C11.3728321,19.1995113 11.0768114,19.4234244 10.8101744,19.6159956 C10.6476867,19.7333478 10.5292878,19.81535 10.4622502,19.8600418 C10.182334,20.0466526 9.81766601,20.0466526 9.53774984,19.8600418 C9.47071219,19.81535 9.35231331,19.7333478 9.18982558,19.6159956 C8.9231886,19.4234244 8.62716786,19.1995113 8.30901935,18.9461708 C7.40145582,18.2234814 6.49416492,17.4069196 5.64503943,16.5106204 C3.16866798,13.8966728 1.66666667,11.1430037 1.66666667,8.33333321 C1.66666667,3.73096034 5.39762713,0 10,0 Z M10,1.66666667 C6.31810171,1.66666667 3.33333333,4.65143494 3.33333333,8.33333322 C3.33333333,10.6278294 4.64383202,13.0304103 6.85496057,15.3643793 C7.64646008,16.1998511 8.49698168,16.9653205 9.34723065,17.6423706 C9.57930924,17.8271739 9.79807372,17.9946751 10,18.1438472 C10.2019263,17.9946751 10.4206908,17.8271739 10.6527693,17.6423706 C11.5030183,16.9653205 12.3535399,16.1998511 13.1450394,15.3643793 C15.356168,13.0304103 16.6666667,10.6278294 16.6666667,8.33333322 C16.6666667,4.65143494 13.6818983,1.66666667 10,1.66666667 Z M10,4.99999989 C11.8409492,4.99999989 13.3333333,6.49238406 13.3333333,8.33333322 C13.3333333,10.1742824 11.8409492,11.6666666 10,11.6666666 C8.15905083,11.6666666 6.66666667,10.1742824 6.66666667,8.33333322 C6.66666667,6.49238406 8.15905083,4.99999989 10,4.99999989 Z M10,6.66666655 C9.07952542,6.66666655 8.33333333,7.41285864 8.33333333,8.33333322 C8.33333333,9.2538078 9.07952542,9.99999989 10,9.99999989 C10.9204746,9.99999989 11.6666667,9.2538078 11.6666667,8.33333322 C11.6666667,7.41285864 10.9204746,6.66666655 10,6.66666655 Z" id="path-1"></path>
    </defs>
    <g id="Symbols" stroke="none" stroke-width="1" fill="none" fill-rule="evenodd">
        <g id="Search/Desktop/floating-label/help-text/left-icon" transform="translate(-11.000000, -15.000000)">
            <g id="Icon/search-Copy" transform="translate(10.000000, 15.000000)">
                <mask id="mask-2" fill="white">
                    <use xlink:href="#path-1"></use>
                </mask>
                <use id="Shape" fill="#7A7E81" fill-rule="nonzero" xlink:href="#path-1"></use>
            </g>
        </g>
    </g>
</svg>