<?xml version="1.0" encoding="UTF-8"?>
<svg width="24px" height="24px" viewBox="0 0 24 24" version="1.1" xmlns="http://www.w3.org/2000/svg" xmlns:xlink="http://www.w3.org/1999/xlink">
    <!-- Generator: Sketch 55.2 (78181) - https://sketchapp.com -->
    <title>Icon/beaker@1x</title>
    <desc>Created with Sketch.</desc>
    <defs>
        <path d="M23.4968209,19.8270638 L15.4966554,8.83316717 L15.4966554,1.75075988 L17.2449433,1.75075988 L17.2449433,0 L6.75521588,0 L6.75521588,1.75075988 L8.50350379,1.75075988 L8.50350379,8.83316717 L0.503338322,19.8270638 C-0.349716909,20.9991429 -0.0924454164,22.641848 1.0779787,23.4961094 C1.52652382,23.8235015 2.06723649,24 2.62226327,24 L21.3778959,24 C22.8262432,24 24,22.8238723 24,21.3735319 C24,20.8177204 23.8236961,20.2762432 23.4968209,19.8270638 Z M10.2517917,9.40391489 L10.2517917,1.75075988 L13.7483675,1.75075988 L13.7483675,9.40391489 L15.4520741,11.7446809 L8.54633684,11.7446809 L10.2517917,9.40391489 Z M22.1567582,21.7712827 C22.0103391,22.0672158 21.7076667,22.2529605 21.3778959,22.249295 L2.62226327,22.249295 C2.13946263,22.2491854 1.74822858,21.8571793 1.74822858,21.3737508 C1.74822858,21.1884985 1.80696013,21.0080061 1.91595495,20.8582614 L7.27445739,13.4954407 L16.7257018,13.4954407 L22.0842043,20.8582614 C22.2811052,21.1235015 22.3092963,21.4781945 22.1567582,21.7712827 Z" id="path-1"></path>
    </defs>
    <g id="Icon/beaker" stroke="none" stroke-width="1" fill="none" fill-rule="evenodd">
        <mask id="mask-2" fill="white">
            <use xlink:href="#path-1"></use>
        </mask>
        <use id="Shape" fill="#7A7E81" fill-rule="nonzero" xlink:href="#path-1"></use>
    </g>
</svg>