<?xml version="1.0" encoding="UTF-8"?>
<svg width="24px" height="24px" viewBox="0 0 24 24" version="1.1" xmlns="http://www.w3.org/2000/svg" xmlns:xlink="http://www.w3.org/1999/xlink">
    <!-- Generator: Sketch 55.2 (78181) - https://sketchapp.com -->
    <title>Icon/bill@1x</title>
    <desc>Created with Sketch.</desc>
    <defs>
        <path d="M14,1 C14.2652165,1 14.5195704,1.10535684 14.7071068,1.29289322 L20.7071068,7.29289322 C20.8946432,7.4804296 21,7.73478351 21,8 L21,20 C21,21.6568542 19.6568542,23 18,23 L6,23 C4.34314575,23 3,21.6568542 3,20 L3,4 C3,2.34314575 4.34314575,1 6,1 L14,1 Z M6,3 C5.44771525,3 5,3.44771525 5,4 L5,20 C5,20.5522847 5.44771525,21 6,21 L18,21 C18.5522847,21 19,20.5522847 19,20 L19,8.41421356 L13.5857864,3 L6,3 Z M11,18.0659002 C10.2118953,17.9607256 9.44055693,17.6674255 8.77,17.186 C8.583,17.054 8.451,16.812 8.451,16.548 C8.451,16.108 8.803,15.767 9.243,15.767 C9.463,15.767 9.617,15.844 9.727,15.921 C10.1206195,16.2106445 10.5393104,16.4250748 11,16.5338218 L11,14.8197884 C9.59573688,14.4393517 8.704,13.9761412 8.704,12.533 L8.704,12.511 C8.704,11.2352669 9.63966347,10.3539802 11,10.2105924 L11,9.5 C11,9.22385763 11.2238576,9 11.5,9 C11.7761424,9 12,9.22385763 12,9.5 L12,10.224844 C12.6871783,10.3063805 13.3008449,10.5290444 13.841,10.872 C14.028,10.982 14.215,11.213 14.215,11.543 C14.215,11.983 13.863,12.324 13.423,12.324 C13.258,12.324 13.126,12.28 12.994,12.203 C12.6529415,12.0023774 12.3240799,11.8546075 12,11.7695772 L12,13.3786663 C12.0158535,13.3827523 12.0318531,13.3868632 12.048,13.391 C13.61,13.798 14.49,14.359 14.49,15.701 L14.49,15.723 C14.49,17.1463504 13.4795677,17.9882256 12,18.0977723 L12,18.5 C12,18.7761424 11.7761424,19 11.5,19 C11.2238576,19 11,18.7761424 11,18.5 L11,18.0659002 Z M12,16.5942577 C12.5093589,16.523818 12.807,16.2685703 12.807,15.888 L12.807,15.866 C12.807,15.5371921 12.6519136,15.331161 12,15.1042765 L12,16.5942577 Z M11,11.7253283 C10.5966356,11.8178521 10.387,12.0637575 10.387,12.357 L10.387,12.379 C10.387,12.7103613 10.5285195,12.8954857 11,13.0795658 L11,11.7253283 Z M15,7 L20,7 C20.5522847,7 21,7.44771525 21,8 C21,8.55228475 20.5522847,9 20,9 L14,9 C13.4477153,9 13,8.55228475 13,8 L13,2 C13,1.44771525 13.4477153,1 14,1 C14.5522847,1 15,1.44771525 15,2 L15,7 Z" id="path-1"></path>
    </defs>
    <g id="Icon/bill" stroke="none" stroke-width="1" fill="none" fill-rule="evenodd">
        <mask id="mask-2" fill="white">
            <use xlink:href="#path-1"></use>
        </mask>
        <use id="Shape" fill="#7A7E81" fill-rule="nonzero" xlink:href="#path-1"></use>
    </g>
</svg>