<?xml version="1.0" encoding="UTF-8"?>
<svg width="24px" height="24px" viewBox="0 0 24 24" version="1.1" xmlns="http://www.w3.org/2000/svg" xmlns:xlink="http://www.w3.org/1999/xlink">
    <!-- Generator: Sketch 55.2 (78181) - https://sketchapp.com -->
    <title>Icon/chevrons-right@1x</title>
    <desc>Created with Sketch.</desc>
    <defs>
        <path d="M16.5857864,12 L12.2928932,7.70710678 C11.9023689,7.31658249 11.9023689,6.68341751 12.2928932,6.29289322 C12.6834175,5.90236893 13.3165825,5.90236893 13.7071068,6.29289322 L18.7071068,11.2928932 C19.0976311,11.6834175 19.0976311,12.3165825 18.7071068,12.7071068 L13.7071068,17.7071068 C13.3165825,18.0976311 12.6834175,18.0976311 12.2928932,17.7071068 C11.9023689,17.3165825 11.9023689,16.6834175 12.2928932,16.2928932 L16.5857864,12 Z M5.29289322,16.2928932 L9.58578644,12 L5.29289322,7.70710678 C4.90236893,7.31658249 4.90236893,6.68341751 5.29289322,6.29289322 C5.68341751,5.90236893 6.31658249,5.90236893 6.70710678,6.29289322 L11.7071068,11.2928932 C12.0976311,11.6834175 12.0976311,12.3165825 11.7071068,12.7071068 L6.70710678,17.7071068 C6.31658249,18.0976311 5.68341751,18.0976311 5.29289322,17.7071068 C4.90236893,17.3165825 4.90236893,16.6834175 5.29289322,16.2928932 Z" id="path-1"></path>
    </defs>
    <g id="Icon/chevrons-right" stroke="none" stroke-width="1" fill="none" fill-rule="evenodd">
        <mask id="mask-2" fill="white">
            <use xlink:href="#path-1"></use>
        </mask>
        <use id="Shape" fill="#7A7E81" fill-rule="nonzero" xlink:href="#path-1"></use>
    </g>
</svg>