<?xml version="1.0" encoding="UTF-8"?>
<svg width="24px" height="24px" viewBox="0 0 24 24" version="1.1" xmlns="http://www.w3.org/2000/svg" xmlns:xlink="http://www.w3.org/1999/xlink">
    <!-- Generator: Sketch 55.2 (78181) - https://sketchapp.com -->
    <title>Icon/chevrons-left@1x</title>
    <desc>Created with Sketch.</desc>
    <defs>
        <path d="M7.41421356,12 L11.7071068,16.2928932 C12.0976311,16.6834175 12.0976311,17.3165825 11.7071068,17.7071068 C11.3165825,18.0976311 10.6834175,18.0976311 10.2928932,17.7071068 L5.29289322,12.7071068 C4.90236893,12.3165825 4.90236893,11.6834175 5.29289322,11.2928932 L10.2928932,6.29289322 C10.6834175,5.90236893 11.3165825,5.90236893 11.7071068,6.29289322 C12.0976311,6.68341751 12.0976311,7.31658249 11.7071068,7.70710678 L7.41421356,12 Z M18.7071068,7.70710678 L14.4142136,12 L18.7071068,16.2928932 C19.0976311,16.6834175 19.0976311,17.3165825 18.7071068,17.7071068 C18.3165825,18.0976311 17.6834175,18.0976311 17.2928932,17.7071068 L12.2928932,12.7071068 C11.9023689,12.3165825 11.9023689,11.6834175 12.2928932,11.2928932 L17.2928932,6.29289322 C17.6834175,5.90236893 18.3165825,5.90236893 18.7071068,6.29289322 C19.0976311,6.68341751 19.0976311,7.31658249 18.7071068,7.70710678 Z" id="path-1"></path>
    </defs>
    <g id="Icon/chevrons-left" stroke="none" stroke-width="1" fill="none" fill-rule="evenodd">
        <mask id="mask-2" fill="white">
            <use xlink:href="#path-1"></use>
        </mask>
        <use id="Shape" fill="#7A7E81" fill-rule="nonzero" xlink:href="#path-1"></use>
    </g>
</svg>