<?xml version="1.0" encoding="UTF-8"?>
<svg width="24px" height="24px" viewBox="0 0 24 24" version="1.1" xmlns="http://www.w3.org/2000/svg" xmlns:xlink="http://www.w3.org/1999/xlink">
    <!-- Generator: Sketch 55.2 (78181) - https://sketchapp.com -->
    <title>Icon/inbox@1x</title>
    <desc>Created with Sketch.</desc>
    <defs>
        <path d="M22.9050362,12.5741106 C22.9518666,12.6734539 22.9828218,12.781754 22.9946303,12.8957393 C22.9981743,12.9303177 23,12.9651101 23,12.9999993 L23,17.9999993 C23,19.6568542 21.6568542,20.9999993 20,20.9999993 L4,20.9999993 C2.34314575,20.9999993 1,19.6568542 1,17.9999993 L1,12.9999993 C1,12.9651101 1.00182568,12.9303177 1.00544763,12.8957607 C1.01717823,12.781754 1.04813344,12.6734539 1.09496382,12.5741106 L4.55593435,4.78443344 C5.03706177,3.69885476 6.11322515,2.99918895 7.3,2.9999993 L16.6993168,2.9999993 C17.8869814,2.99918881 18.9633128,3.6990983 19.4438598,4.7839701 L22.9050362,12.5741106 Z M20.4614382,12 L17.6156832,5.59499977 C17.4553485,5.23303246 17.0965714,4.99972929 16.7,4.99999953 L7.29931679,4.99999953 C6.90342859,4.99972929 6.54465145,5.23303246 6.38431679,5.59499977 L3.53856183,12 L8,12 C8.33435319,12 8.64658452,12.1671011 8.83205029,12.4452998 L10.5351838,15 L13.4648162,15 L15.1679497,12.4452998 C15.3534155,12.1671011 15.6656468,12 16,12 L20.4614382,12 Z M21,14 L16.5351838,14 L14.8320503,16.5547002 C14.6465845,16.8328989 14.3343532,17 14,17 L10,17 C9.66564681,17 9.35341548,16.8328989 9.16794971,16.5547002 L7.46481624,14 L3,14 L3,17.9999995 C3,18.5522847 3.44771525,18.9999995 4,18.9999995 L20,18.9999995 C20.5522847,18.9999995 21,18.5522847 21,17.9999995 L21,14 Z" id="path-1"></path>
    </defs>
    <g id="Icon/inbox" stroke="none" stroke-width="1" fill="none" fill-rule="evenodd">
        <mask id="mask-2" fill="white">
            <use xlink:href="#path-1"></use>
        </mask>
        <use id="Shape" fill="#7A7E81" fill-rule="nonzero" xlink:href="#path-1"></use>
    </g>
</svg>