<?xml version="1.0" encoding="UTF-8"?>
<svg width="24px" height="24px" viewBox="0 0 24 24" version="1.1" xmlns="http://www.w3.org/2000/svg" xmlns:xlink="http://www.w3.org/1999/xlink">
    <!-- Generator: Sketch 55.2 (78181) - https://sketchapp.com -->
    <title>Icon/levels@1x</title>
    <desc>Created with Sketch.</desc>
    <defs>
        <path d="M16.2675644,17 C16.6133738,16.4021986 17.2597176,16 18,16 C18.7402824,16 19.3866262,16.4021986 19.7324356,17 L21,17 C21.5522847,17 22,17.4477153 22,18 C22,18.5522847 21.5522847,19 21,19 L19.7324356,19 C19.3866262,19.5978014 18.7402824,20 18,20 C17.2597176,20 16.6133738,19.5978014 16.2675644,19 L3,19 C2.44771525,19 2,18.5522847 2,18 C2,17.4477153 2.44771525,17 3,17 L16.2675644,17 Z M11.2675644,5 C11.6133738,4.40219863 12.2597176,4 13,4 C13.7402824,4 14.3866262,4.40219863 14.7324356,5 L21,5 C21.5522847,5 22,5.44771525 22,6 C22,6.55228475 21.5522847,7 21,7 L14.7324356,7 C14.3866262,7.59780137 13.7402824,8 13,8 C12.2597176,8 11.6133738,7.59780137 11.2675644,7 L3,7 C2.44771525,7 2,6.55228475 2,6 C2,5.44771525 2.44771525,5 3,5 L11.2675644,5 Z M4.26756439,11 C4.61337381,10.4021986 5.25971764,10 6,10 C6.74028236,10 7.38662619,10.4021986 7.73243561,11 L21,11 C21.5522847,11 22,11.4477153 22,12 C22,12.5522847 21.5522847,13 21,13 L7.73243561,13 C7.38662619,13.5978014 6.74028236,14 6,14 C5.25971764,14 4.61337381,13.5978014 4.26756439,13 L3,13 C2.44771525,13 2,12.5522847 2,12 C2,11.4477153 2.44771525,11 3,11 L4.26756439,11 Z" id="path-1"></path>
    </defs>
    <g id="Icon/levels" stroke="none" stroke-width="1" fill="none" fill-rule="evenodd">
        <mask id="mask-2" fill="white">
            <use xlink:href="#path-1"></use>
        </mask>
        <use id="Shape" fill="#7A7E81" fill-rule="nonzero" xlink:href="#path-1"></use>
    </g>
</svg>