<?xml version="1.0" encoding="UTF-8"?>
<svg width="24px" height="24px" viewBox="0 0 24 24" version="1.1" xmlns="http://www.w3.org/2000/svg" xmlns:xlink="http://www.w3.org/1999/xlink">
    <!-- Generator: Sketch 55.2 (78181) - https://sketchapp.com -->
    <title>Icon/mic-off@1x</title>
    <desc>Created with Sketch.</desc>
    <defs>
        <path d="M10.0833333,22.0032437 L10.0833333,19.9921396 C9.44720009,19.9047508 8.81512574,19.7252402 8.20340151,19.4499643 C5.4397849,18.2063368 3.64482008,15.257122 3.66666667,12.0032437 L3.66666667,10.0032437 C3.66666667,9.45095898 4.07707231,9.00324373 4.58333333,9.00324373 C5.08959435,9.00324373 5.5,9.45095898 5.5,10.0032437 L5.49997547,12.0105597 C5.48357213,14.4564553 6.82979575,16.6683665 8.9025082,17.6010871 C9.49486404,17.8676472 10.1126624,18.0144779 10.7296058,18.0474605 C10.8150769,18.0187176 10.905882,18.0032437 11,18.0032437 C11.0939787,18.0032437 11.1846543,18.0186718 11.2700146,18.0473329 C12.3201235,17.9907312 13.3452517,17.6063573 14.2139683,16.9236045 L12.8608206,15.4474434 C11.8841937,16.0749065 10.6765305,16.1838305 9.59726318,15.6963205 C8.22797616,15.0778073 7.33463723,13.6208788 7.33333333,12.0032437 L7.33333333,9.41745729 L0.268485451,1.71035051 C-0.0894951502,1.31982622 -0.0894951502,0.686661242 0.268485451,0.29613695 C0.626466051,-0.0943873419 1.20686728,-0.0943873419 1.56484788,0.29613695 L16.0371653,16.0841196 C16.1040761,16.1257643 16.1672341,16.1773615 16.2248413,16.2389313 C16.2871469,16.3055226 16.3388942,16.3794349 16.3800599,16.4581864 L21.7315145,22.2961369 C22.0894952,22.6866612 22.0894952,23.3198262 21.7315145,23.7103505 C21.3735339,24.1008748 20.7931327,24.1008748 20.4351521,23.7103505 L15.5230603,18.3517048 C14.4664433,19.2554624 13.2163709,19.8128597 11.9166667,19.9917316 L11.9166667,22.0032437 L14.6666667,22.0032437 C15.1729277,22.0032437 15.5833333,22.450959 15.5833333,23.0032437 C15.5833333,23.5555285 15.1729277,24.0032437 14.6666667,24.0032437 L7.33333333,24.0032437 C6.82707231,24.0032437 6.41666667,23.5555285 6.41666667,23.0032437 C6.41666667,22.450959 6.82707231,22.0032437 7.33333333,22.0032437 L10.0833333,22.0032437 Z M11.4725987,13.9330195 L9.16666638,11.417457 L9.16666631,12.0023642 C9.16731808,12.8107419 9.61398755,13.5392062 10.2986311,13.8484628 C10.6790367,14.0202937 11.0913443,14.0439315 11.4725987,13.9330195 Z M14.6666685,9.34324373 C14.6666685,9.89552848 14.256261,10.3432437 13.75,10.3432437 C13.243739,10.3432437 12.8333333,9.89552848 12.8333333,9.34324373 L12.8333338,4.00223873 C12.8342804,2.97473253 12.1213616,2.11361745 11.184249,2.01035435 C10.2471364,1.90709126 9.39076344,2.59528162 9.2033338,3.60223873 C9.10259038,4.14347807 8.61872397,4.49314614 8.12258792,4.38324424 C7.62645186,4.27334233 7.30592279,3.74548806 7.4066662,3.20424873 C7.78152549,1.19033451 9.49427145,-0.186046216 11.3684966,0.0204799761 C13.2427218,0.227006168 14.6685594,1.94923632 14.6666685,4.00324373 L14.6666685,9.34324373 Z M16.5,10.0032437 C16.5,9.45095898 16.9104056,9.00324373 17.4166667,9.00324373 C17.9229277,9.00324373 18.3333333,9.45095898 18.3333333,10.0032437 L18.3333333,12.0041148 C18.3329566,12.4754747 18.2943939,12.9458762 18.2180949,13.4098291 C18.1286966,13.9534348 17.6522687,14.3150545 17.1539634,14.2175291 C16.6556581,14.1200037 16.3241735,13.6002642 16.4135718,13.0566584 C16.470796,12.7086937 16.4997181,12.3558927 16.5,12.0032437 L16.5,10.0032437 Z" id="path-1"></path>
    </defs>
    <g id="Icon/mic-off" stroke="none" stroke-width="1" fill="none" fill-rule="evenodd">
        <mask id="mask-2" fill="white">
            <use xlink:href="#path-1"></use>
        </mask>
        <use id="Shape" fill="#7A7E81" fill-rule="nonzero" xlink:href="#path-1"></use>
    </g>
</svg>