<?xml version="1.0" encoding="UTF-8"?>
<svg width="24px" height="24px" viewBox="0 0 24 24" version="1.1" xmlns="http://www.w3.org/2000/svg" xmlns:xlink="http://www.w3.org/1999/xlink">
    <!-- Generator: Sketch 55.2 (78181) - https://sketchapp.com -->
    <title>Icon/pill@1x</title>
    <desc>Created with Sketch.</desc>
    <defs>
        <path d="M8,6 C4.6862915,6 2,8.6862915 2,12 C2,15.3137085 4.6862915,18 8,18 L16,18 C19.3137085,18 22,15.3137085 22,12 C22,8.6862915 19.3137085,6 16,6 L8,6 Z M8,4 L16,4 C20.418278,4 24,7.581722 24,12 C24,16.418278 20.418278,20 16,20 L8,20 C3.581722,20 0,16.418278 0,12 C0,7.581722 3.581722,4 8,4 Z M11,6 L13,6 L13,18 L11,18 L11,6 Z" id="path-1"></path>
    </defs>
    <g id="Icon/pill" stroke="none" stroke-width="1" fill="none" fill-rule="evenodd">
        <mask id="mask-2" fill="white">
            <use xlink:href="#path-1"></use>
        </mask>
        <use id="Shape" fill="#7A7E81" fill-rule="nonzero" transform="translate(12.000000, 12.000000) rotate(-45.000000) translate(-12.000000, -12.000000) " xlink:href="#path-1"></use>
    </g>
</svg>