<?xml version="1.0" encoding="utf-8"?>
<!-- Generator: Adobe Illustrator 23.0.6, SVG Export Plug-In . SVG Version: 6.00 Build 0)  -->
<svg version="1.1" id="Layer_1" xmlns="http://www.w3.org/2000/svg" xmlns:xlink="http://www.w3.org/1999/xlink" x="0px" y="0px"
	 viewBox="0 0 53.4 49.5" style="enable-background:new 0 0 53.4 49.5;" xml:space="preserve">
<style type="text/css">
	.st0{opacity:0.1;enable-background:new    ;}
	.st1{fill:#00A69E;}
	.st2{filter:url(#filter-2);}
	.st3{fill-rule:evenodd;clip-rule:evenodd;fill:#FFFFFF;}
</style>
<filter  filterUnits="objectBoundingBox" height="102.2%" id="filter-2" width="102.6%" x="-1.3%" y="-1.1%">
	<feMorphology  in="SourceAlpha" operator="erode" radius="1" result="shadowSpreadInner1"></feMorphology>
	<feOffset  dx="0" dy="0" in="shadowSpreadInner1" result="shadowOffsetInner1"></feOffset>
	<feComposite  in="shadowOffsetInner1" in2="SourceAlpha" k2="-1" k3="1" operator="arithmetic" result="shadowInnerInner1">
		</feComposite>
	<feColorMatrix  in="shadowInnerInner1" type="matrix" values="0 0 0 0 0   0 0 0 0 0   0 0 0 0 0  0 0 0 0.2 0"></feColorMatrix>
</filter>
<title>Map/Pin/1st Tier Copy 2@3x</title>
<desc>Created with Sketch.</desc>
<g id="Page-1">
	<g transform="translate(-827.000000, -504.000000)">
		<g id="Location" transform="translate(610.000000, 340.000000)">
			<g id="Map" transform="translate(20.000000, 0.000000)">
				<g transform="translate(197.000000, 164.000000)">
					<path id="Combined-Shape" class="st0" d="M32,48.7c-2.2,0.2-4.4,0.2-6.4,0.1c-0.7,0-1.4-0.1-1.9-0.2c-0.3,0-0.6-0.1-0.7-0.1
						c-0.6-0.1-1-0.5-1.1-1.1c0-0.1,0-0.4-0.1-0.7c0-0.6-0.1-1.2-0.1-1.9c0-2,0-4.2,0.3-6.4c0.8-6.4,2.8-11.9,6.7-15.6
						c6.3-6.1,15.8-6.6,21-1.2s4.4,14.9-1.9,21C43.9,46.3,38.4,48.2,32,48.7z"/>
					<g id="Group">
						<g>
							<g>
								<path id="path-1" class="st1" d="M32.5,40.4c-2,2.1-4,3.9-6.1,5.6c-0.7,0.6-1.4,1.1-2,1.5c-0.4,0.3-0.6,0.5-0.8,0.6
									c-0.6,0.4-1.5,0.4-2.1,0c-0.2-0.1-0.4-0.3-0.8-0.6c-0.6-0.4-1.3-1-2-1.5c-2.1-1.7-4.2-3.5-6.1-5.6c-5.7-6-9.1-12.3-9.1-18.8
									C3.4,11,12,2.5,22.5,2.5S41.7,11,41.7,21.6C41.7,28.1,38.2,34.4,32.5,40.4z"/>
							</g>
							<g class="st2">
								<path d="M32.5,40.4c-2,2.1-4,3.9-6.1,5.6c-0.7,0.6-1.4,1.1-2,1.5c-0.4,0.3-0.6,0.5-0.8,0.6c-0.6,0.4-1.5,0.4-2.1,0
									c-0.2-0.1-0.4-0.3-0.8-0.6c-0.6-0.4-1.3-1-2-1.5c-2.1-1.7-4.2-3.5-6.1-5.6c-5.7-6-9.1-12.3-9.1-18.8C3.4,11,12,2.5,22.5,2.5
									S41.7,11,41.7,21.6C41.7,28.1,38.2,34.4,32.5,40.4z"/>
							</g>
						</g>
						<path id="Oval" class="st3" d="M22.5,29.3c-4.2,0-7.7-3.4-7.7-7.7s3.4-7.7,7.7-7.7s7.7,3.4,7.7,7.7S26.8,29.3,22.5,29.3z"/>
					</g>
				</g>
			</g>
		</g>
	</g>
</g>
</svg>
