<?xml version="1.0" encoding="UTF-8"?>
<svg width="24px" height="24px" viewBox="0 0 24 24" version="1.1" xmlns="http://www.w3.org/2000/svg" xmlns:xlink="http://www.w3.org/1999/xlink">
    <!-- Generator: Sketch 55.2 (78181) - https://sketchapp.com -->
    <title>Icon/plan-of-care@1x</title>
    <desc>Created with Sketch.</desc>
    <defs>
        <path d="M13,13 L16,13 C16.5522847,13 17,13.4477153 17,14 C17,14.5522847 16.5522847,15 16,15 L13,15 L13,18 C13,18.5522847 12.5522847,19 12,19 C11.4477153,19 11,18.5522847 11,18 L11,15 L8,15 C7.44771525,15 7,14.5522847 7,14 C7,13.4477153 7.44771525,13 8,13 L11,13 L11,10 C11,9.44771525 11.4477153,9 12,9 C12.5522847,9 13,9.44771525 13,10 L13,13 Z M17,3 L18,3 C19.6568542,3 21,4.34314575 21,6 L21,20 C21,21.6568542 19.6568542,23 18,23 L6,23 C4.34314575,23 3,21.6568542 3,20 L3,6 C3,4.34314575 4.34314575,3 6,3 L7,3 C7,1.8954305 7.8954305,1 9,1 L15,1 C16.1045695,1 17,1.8954305 17,3 Z M7,5 L6,5 C5.44771525,5 5,5.44771525 5,6 L5,20 C5,20.5522847 5.44771525,21 6,21 L18,21 C18.5522847,21 19,20.5522847 19,20 L19,6 C19,5.44771525 18.5522847,5 18,5 L17,5 C17,6.1045695 16.1045695,7 15,7 L9,7 C7.8954305,7 7,6.1045695 7,5 Z M9,3 L9,5 L15,5 L15,3 L9,3 Z" id="path-1"></path>
    </defs>
    <g id="Icon/plan-of-care" stroke="none" stroke-width="1" fill="none" fill-rule="evenodd">
        <mask id="mask-2" fill="white">
            <use xlink:href="#path-1"></use>
        </mask>
        <use id="Shape" fill="#7A7E81" fill-rule="nonzero" xlink:href="#path-1"></use>
    </g>
</svg>