<?xml version="1.0" encoding="UTF-8"?>
<svg width="24px" height="24px" viewBox="0 0 24 24" version="1.1" xmlns="http://www.w3.org/2000/svg" xmlns:xlink="http://www.w3.org/1999/xlink">
    <!-- Generator: Sketch 55.2 (78181) - https://sketchapp.com -->
    <title>Icon/rotate-ccw@1x</title>
    <desc>Created with Sketch.</desc>
    <defs>
        <path d="M4.52455351,8.99090736 L8.00000303,8.99090736 C8.55228778,8.99090736 9.00000303,9.43862261 9.00000303,9.99090736 C9.00000303,10.5431921 8.55228778,10.9909074 8.00000303,10.9909074 L2.00000303,10.9909074 C1.44771828,10.9909074 1.00000303,10.5431921 1.00000303,9.99090736 L1.00000303,3.99090736 C1.00000303,3.43862261 1.44771828,2.99090736 2.00000303,2.99090736 C2.55228778,2.99090736 3.00000303,3.43862261 3.00000303,3.99090736 L3.00000303,7.67927437 L5.93349439,4.92320294 C9.08553025,1.77649298 13.9387121,1.09367728 17.8366436,3.24849603 C21.7345751,5.40331479 23.7375736,9.8763013 22.7492949,14.2191597 C21.7610163,18.5620181 18.0197068,21.7278063 13.5731779,21.9837254 C9.12664905,22.2396445 5.04683484,19.5239996 3.56682772,15.3232029 C3.38330594,14.8023016 3.65680611,14.2312538 4.17770745,14.0477321 C4.69860878,13.8642103 5.26965655,14.1377104 5.45317833,14.6586118 C6.63718402,18.0192491 9.90103539,20.1917651 13.4582585,19.9870298 C17.0154816,19.7822945 20.0085292,17.2496639 20.7991521,13.7753772 C21.589775,10.3010905 19.9873762,6.72270126 16.869031,4.99884626 C13.7506858,3.27499125 9.86814035,3.82124382 7.32477961,6.35966042 L4.52455351,8.99090736 Z" id="path-1"></path>
    </defs>
    <g id="Icon/rotate-ccw" stroke="none" stroke-width="1" fill="none" fill-rule="evenodd">
        <mask id="mask-2" fill="white">
            <use xlink:href="#path-1"></use>
        </mask>
        <use id="Shape" fill="#7A7E81" fill-rule="nonzero" xlink:href="#path-1"></use>
    </g>
</svg>