<?xml version="1.0" encoding="UTF-8"?>
<svg width="24px" height="24px" viewBox="0 0 24 24" version="1.1" xmlns="http://www.w3.org/2000/svg" xmlns:xlink="http://www.w3.org/1999/xlink">
    <!-- Generator: Sketch 55.2 (78181) - https://sketchapp.com -->
    <title>Icon/rx@1x</title>
    <desc>Created with Sketch.</desc>
    <defs>
        <path d="M14,1 C14.2652165,1 14.5195704,1.10535684 14.7071068,1.29289322 L20.7071068,7.29289322 C20.8946432,7.4804296 21,7.73478351 21,8 L21,20 C21,21.6568542 19.6568542,23 18,23 L6,23 C4.34314575,23 3,21.6568542 3,20 L3,4 C3,2.34314575 4.34314575,1 6,1 L14,1 Z M6,3 C5.44771525,3 5,3.44771525 5,4 L5,20 C5,20.5522847 5.44771525,21 6,21 L18,21 C18.5522847,21 19,20.5522847 19,20 L19,8.41421356 L13.5857864,3 L6,3 Z M7.3075,14.361 L7.3075,9.393 C7.3075,9.006 7.6135,8.7 8.0005,8.7 L10.1875,8.7 C10.9885,8.7 11.6095,8.925 12.0235,9.339 C12.3745,9.69 12.5635,10.185 12.5635,10.779 L12.5635,10.797 C12.5635,11.787 12.0685,12.399 11.3035,12.714 L12.2665,13.884 C12.4015,14.055 12.4915,14.199 12.4915,14.415 C12.4915,14.802 12.1675,15.054 11.8345,15.054 C11.5195,15.054 11.3125,14.901 11.1505,14.694 L9.8005,12.984 L8.6935,12.984 L8.6935,14.361 C8.6935,14.748 8.3875,15.054 8.0005,15.054 C7.6135,15.054 7.3075,14.748 7.3075,14.361 Z M15,7 L20,7 C20.5522847,7 21,7.44771525 21,8 C21,8.55228475 20.5522847,9 20,9 L14,9 C13.4477153,9 13,8.55228475 13,8 L13,2 C13,1.44771525 13.4477153,1 14,1 C14.5522847,1 15,1.44771525 15,2 L15,7 Z M8.69999981,11.6090002 L10.1039998,11.6090002 C10.7789998,11.6090002 11.1659998,11.2490002 11.1659998,10.7180002 L11.1659998,10.7000002 C11.1659998,10.1060002 10.7519998,9.80000019 10.0769998,9.80000019 L8.69999981,9.80000019 L8.69999981,11.6090002 Z M10.1899996,18.469 C10.1899996,18.271 10.2619996,18.109 10.3969996,17.938 L12.0979996,15.85 L10.4959996,13.897 C10.3879996,13.762 10.2889996,13.582 10.2889996,13.384 C10.2889996,12.997 10.5769996,12.7 10.9729996,12.7 C11.2699996,12.7 11.4409996,12.817 11.6119996,13.042 L12.9889996,14.878 L14.3569996,13.078 C14.5459996,12.835 14.7259996,12.7 15.0319996,12.7 C15.3379996,12.7 15.6619996,12.943 15.6619996,13.339 C15.6619996,13.537 15.5899996,13.699 15.4549996,13.87 L13.8529996,15.832 L15.5449996,17.911 C15.6529996,18.046 15.7519996,18.226 15.7519996,18.424 C15.7519996,18.811 15.4639996,19.108 15.0679996,19.108 C14.7709996,19.108 14.5999996,18.991 14.4289996,18.766 L12.9529996,16.831 L11.4949996,18.73 C11.3059996,18.973 11.1259996,19.108 10.8199996,19.108 C10.5139996,19.108 10.1899996,18.865 10.1899996,18.469 Z" id="path-1"></path>
    </defs>
    <g id="Icon/rx" stroke="none" stroke-width="1" fill="none" fill-rule="evenodd">
        <mask id="mask-2" fill="white">
            <use xlink:href="#path-1"></use>
        </mask>
        <use id="Shape" fill="#7A7E81" fill-rule="nonzero" xlink:href="#path-1"></use>
    </g>
</svg>