<?xml version="1.0" encoding="UTF-8"?>
<svg width="24px" height="24px" viewBox="0 0 24 24" version="1.1" xmlns="http://www.w3.org/2000/svg" xmlns:xlink="http://www.w3.org/1999/xlink">
    <!-- Generator: Sketch 55.2 (78181) - https://sketchapp.com -->
    <title>Icon/stethoscope@1x</title>
    <desc>Created with Sketch.</desc>
    <defs>
        <path d="M13.0778455,1.09133384 L15.2812246,1.09133384 C15.842913,1.09133384 16.2981521,1.54934144 16.2981521,2.11444563 L16.2981521,6.99133688 C16.2981521,11.1934497 13.1346726,14.6659266 9.07783639,15.1248396 L9.07783639,16.8381627 C9.07783639,19.6589202 11.3588212,21.9537764 14.1625282,21.9537764 C16.9645239,21.9537764 19.2444353,19.6617207 19.2472174,16.8433273 C17.6648586,16.3958778 16.5015267,14.9310468 16.5015267,13.1982297 C16.5015267,11.1107224 18.1893128,9.41267224 20.2645284,9.41267224 C22.3390909,9.41267224 24.0272036,11.1107224 24.0272036,13.1982297 C24.0269325,14.9310887 22.8634983,16.3959486 21.2810731,16.8433597 C21.2782726,20.7898665 18.0858219,24 14.1625282,24 C10.2371315,24 7.04398144,20.7870479 7.04398144,16.8381627 L7.04398144,15.0991917 C3.08536518,14.5491375 0.0272036199,11.1229097 0.0272036199,6.99133688 L0.0272036199,2.11444563 C0.0272036199,1.54934144 0.482442747,1.09133384 1.0441311,1.09133384 L3.17970056,1.09133384 L3.17970056,1.02311179 C3.17970056,0.458007605 3.63493969,0 4.19662804,0 C4.75831639,0 5.21355552,0.458007605 5.21355552,1.02311179 L5.21355552,3.20577947 C5.21355552,3.77088365 4.75831639,4.22889125 4.19662804,4.22889125 C3.63493969,4.22889125 3.17970056,3.77088365 3.17970056,3.20577947 L3.17970056,3.13755741 L2.06105857,3.13755741 L2.06105857,6.99133688 C2.06105857,10.3761582 4.79826206,13.1300076 8.16262343,13.1300076 C11.5269848,13.1300076 14.2642427,10.3761034 14.2642427,6.99128213 L14.2642427,3.13755741 L13.0778455,3.13755741 L13.0778455,3.20577947 C13.0778455,3.77088365 12.6226063,4.22889125 12.060918,4.22889125 C11.4992296,4.22889125 11.0439905,3.77088365 11.0439905,3.20577947 L11.0439905,1.02311179 C11.0439905,0.458007605 11.4992296,0 12.060918,0 C12.6226063,0 13.0778455,0.458007605 13.0778455,1.02311179 L13.0778455,1.09133384 Z M20.2642019,14.9375635 C21.2174013,14.9375635 21.9929677,14.1572806 21.9929677,13.1982844 C21.9929677,12.2392882 21.2174013,11.4590053 20.2642019,11.4590053 C19.3106215,11.4590053 18.5350551,12.2392882 18.5350551,13.1982844 C18.5350551,14.1572806 19.3106759,14.9375635 20.2642019,14.9375635 Z" id="path-1"></path>
    </defs>
    <g id="Icon/stethoscope" stroke="none" stroke-width="1" fill="none" fill-rule="evenodd">
        <mask id="mask-2" fill="white">
            <use xlink:href="#path-1"></use>
        </mask>
        <use id="Shape" fill="#7A7E81" fill-rule="nonzero" xlink:href="#path-1"></use>
    </g>
</svg>