<?xml version="1.0" encoding="UTF-8"?>
<svg width="24px" height="24px" viewBox="0 0 24 24" version="1.1" xmlns="http://www.w3.org/2000/svg" xmlns:xlink="http://www.w3.org/1999/xlink">
    <!-- Generator: Sketch 55.2 (78181) - https://sketchapp.com -->
    <title>Icon/x-ray@1x</title>
    <desc>Created with Sketch.</desc>
    <defs>
        <path d="M8.88857659,12.8805461 L5.06886167,12.8805461 C4.57016663,12.8805461 4.16542863,13.2852841 4.16542863,13.7839791 C4.16542863,14.2826742 4.57016663,14.6874122 5.06886167,14.6874122 L8.88857659,14.6874122 C9.38727163,14.6874122 9.79200964,14.2826742 9.79200964,13.7839791 C9.79200964,13.2852841 9.38727163,12.8805461 8.88857659,12.8805461 Z M8.88857659,16.4472997 L7.49126681,16.4472997 C6.99257177,16.4472997 6.58783377,16.8520377 6.58783377,17.3507328 C6.58783377,17.8494278 6.99257177,18.2541658 7.49126681,18.2541658 L8.88857659,18.2541658 C9.38727163,18.2541658 9.79200964,17.8494278 9.79200964,17.3507328 C9.79200964,16.8520377 9.38727163,16.4472997 8.88857659,16.4472997 Z M8.88857659,9.31319012 L5.31700462,9.31319012 C4.81830958,9.31319012 4.41357157,9.71792813 4.41357157,10.2166232 C4.41357157,10.7147159 4.81830958,11.1200562 5.31700462,11.1200562 L8.88857659,11.1200562 C9.38727163,11.1200562 9.79200964,10.7147159 9.79200964,10.2166232 C9.79200964,9.71732584 9.38727163,9.31319012 8.88857659,9.31319012 Z M15.1114234,11.1200562 L18.6842,11.1200562 C19.182895,11.1200562 19.587633,10.7147159 19.587633,10.2166232 C19.587633,9.71792813 19.182895,9.31319012 18.6842,9.31319012 L15.1114234,9.31319012 C14.6127284,9.31319012 14.2079904,9.71792813 14.2079904,10.2166232 C14.2079904,10.7147159 14.6127284,11.1200562 15.1114234,11.1200562 Z M18.9311383,12.8805461 L15.1114234,12.8805461 C14.6127284,12.8805461 14.2079904,13.2852841 14.2079904,13.7839791 C14.2079904,14.2826742 14.6127284,14.6874122 15.1114234,14.6874122 L18.9311383,14.6874122 C19.4298334,14.6874122 19.8345714,14.2826742 19.8345714,13.7839791 C19.8345714,13.2852841 19.4298334,12.8805461 18.9311383,12.8805461 Z M15.1114234,7.55209797 L17.2170247,7.55209797 C17.716322,7.55209797 18.1204577,7.14735997 18.1204577,6.64866493 C18.1204577,6.14996989 17.716322,5.74523188 17.2170247,5.74523188 L15.1114234,5.74523188 C14.6127284,5.74523188 14.2079904,6.14996989 14.2079904,6.64866493 C14.2079904,7.14735997 14.6127284,7.55209797 15.1114234,7.55209797 Z M8.88857659,5.74523188 L6.78297531,5.74523188 C6.28488255,5.74523188 5.87954226,6.14996989 5.87954226,6.64866493 C5.87954226,7.14735997 6.28488255,7.55209797 6.78297531,7.55209797 L8.88857659,7.55209797 C9.38727163,7.55209797 9.79200964,7.14735997 9.79200964,6.64866493 C9.79200964,6.14996989 9.38727163,5.74523188 8.88857659,5.74523188 Z M16.5093355,16.4472997 L15.1102188,16.4472997 C14.6115238,16.4472997 14.2067858,16.8520377 14.2067858,17.3507328 C14.2067858,17.8494278 14.6115238,18.2541658 15.1102188,18.2541658 L16.5093355,18.2541658 C17.0086328,18.2541658 17.4127685,17.8494278 17.4127685,17.3507328 C17.4127685,16.8520377 17.0086328,16.4472997 16.5093355,16.4472997 Z M12,5 C11.501305,5 11.096567,5.50190725 11.096567,6 L11.096567,18 C11.096567,18.498695 11.501305,19 12,19 C12.498695,19 12.903433,18.498695 12.903433,18 L12.903433,6 C12.903433,5.50130496 12.498695,5 12,5 Z M19,1 L5,1 C2.97269625,1 1,2.97269625 1,5 L1,19 C1,21.0267015 2.97209396,23.0012046 5,23.0012046 L19,23.0012046 C21.0273038,23.0012046 23,21.027906 23,19 L23,5 C23,2.97269625 21.0285083,1 19,1 Z M21,19 C21,20.030516 20.030516,21.1931339 19,21.1931339 L5,21.1931339 C3.96767717,21.1931339 3,20.0299137 3,19 L3,5 C3,3.96948404 3.97068862,2.8062638 5,2.8062638 L19,2.8062638 C20.0311182,2.8062638 21,3.97068862 21,5 L21,19 Z" id="path-1"></path>
    </defs>
    <g id="Icon/x-ray" stroke="none" stroke-width="1" fill="none" fill-rule="evenodd">
        <mask id="mask-2" fill="white">
            <use xlink:href="#path-1"></use>
        </mask>
        <use id="Shape" fill="#7A7E81" fill-rule="nonzero" xlink:href="#path-1"></use>
    </g>
</svg>