<?xml version="1.0" encoding="UTF-8"?>
<svg width="24px" height="24px" viewBox="0 0 24 24" version="1.1" xmlns="http://www.w3.org/2000/svg" xmlns:xlink="http://www.w3.org/1999/xlink">
    <!-- Generator: Sketch 55.2 (78181) - https://sketchapp.com -->
    <title>Icon/x-ray-alt@1x</title>
    <desc>Created with Sketch.</desc>
    <defs>
        <path d="M19,1 L5,1 C2.97269625,1 1,2.97269625 1,5 L1,19 C1,21.0267015 2.97209396,23.0012046 5,23.0012046 L19,23.0012046 C21.0273038,23.0012046 23,21.027906 23,19 L23,5 C23,2.97269625 21.0285083,1 19,1 Z M21,19 C21,20.030516 20.030516,21.1931339 19,21.1931339 L5,21.1931339 C3.96767717,21.1931339 3,20.0299137 3,19 L3,5 C3,3.96948404 3.97068862,2.8062638 5,2.8062638 L19,2.8062638 C20.0311182,2.8062638 21,3.97068862 21,5 L21,19 Z M8.94804982,19 C9.50626631,19 10.0311867,18.7822724 10.426397,18.3873516 C10.8210283,17.9927204 11.0387559,17.4675104 11.0387559,16.909294 C11.0387559,16.434173 10.8815403,15.9836622 10.592588,15.6176945 L15.6171155,10.5931671 C15.9842412,10.8824089 16.434173,11.0396244 16.9087149,11.0396244 C17.4666419,11.0396244 17.9918518,10.8218968 18.3867726,10.4269761 C18.7814038,10.0323448 18.9988419,9.50742441 18.9985527,8.94920792 C18.9985527,8.39099144 18.7811143,7.86578153 18.3861935,7.47115027 C18.0439674,7.12921372 17.6035902,6.9204616 17.1273111,6.87182033 C17.0795384,6.39901559 16.8716549,5.95632212 16.526823,5.61177979 C16.1319022,5.21714853 15.6072714,5 15.0493444,5 C14.491128,5 13.965918,5.21743806 13.5709972,5.61235885 C13.176366,6.00670058 12.9589279,6.53162096 12.9589279,7.09012698 C12.9586384,7.56611656 13.1167225,8.01720644 13.4050958,8.38201597 L8.38056833,13.4062539 C8.01373208,13.1167225 7.56380033,12.959507 7.08925841,12.959507 C6.53104192,12.959507 6.00583201,13.1772346 5.61120075,13.5718658 C4.79645946,14.3868966 4.79616993,15.7129503 5.61091122,16.5282707 C5.95342683,16.8702072 6.39409358,17.0789593 6.86979362,17.1276006 C6.9175663,17.5998263 7.12544983,18.0428093 7.46999216,18.3876411 C7.86491295,18.7822724 8.38983333,19 8.94804982,19 Z M4.90355329,17.2351262 C3.69861398,16.0293305 3.69887886,14.0704024 4.90409397,12.864759 C5.48631243,12.2825406 6.2658972,11.959507 7.08925841,11.959507 C7.47562317,11.959507 7.85307507,12.0306364 8.20550355,12.1671357 L12.1660957,8.20677186 C12.0297569,7.85423062 11.9586929,7.47641638 11.9589279,7.09012698 C11.9589279,6.26636972 12.2817582,5.48695715 12.8638905,4.90525207 C13.4462873,4.32285523 14.2258261,4 15.0493444,4 C15.8724458,4 16.6512945,4.32246478 17.2336328,4.90437609 C17.5596035,5.23007315 17.8048871,5.61840731 17.957175,6.0421576 C18.3806198,6.19430485 18.7679363,6.43895464 19.0930409,6.76378423 C19.6756033,7.34591951 19.9985527,8.12557215 19.9985527,8.94868925 C19.9989794,9.7722329 19.676223,10.5517392 19.0938794,11.1340828 C18.5114675,11.7164947 17.7319226,12.0396244 16.9087149,12.0396244 C16.5223791,12.0396244 16.1449331,11.9685056 15.7924427,11.8320533 L11.831487,15.7930091 C11.9677402,16.1453807 12.0387559,16.5229289 12.0387559,16.909294 C12.0387559,17.7326552 11.7157223,18.5122399 11.1332446,19.0947175 C10.5505083,19.6770269 9.7713413,20 8.94804982,20 C8.12483804,20 7.3456478,19.6770832 6.76258846,19.0944509 C6.43717764,18.7687666 6.19217943,18.3805406 6.03999154,17.9571452 C5.61668721,17.8049513 5.22919884,17.5602219 4.90355329,17.2351262 Z M5.51725619,16.6206365 C4.65133129,15.7531315 4.6516569,14.3456777 5.51803579,13.4792991 C5.93609898,13.0607107 6.49755613,12.8281011 7.08925841,12.8281011 C7.55262209,12.8281011 7.99632218,12.970695 8.36761973,13.2326021 L13.2319424,8.36828103 C12.9696699,7.99673246 12.827522,7.55238467 12.827522,7.08954792 C12.827522,6.49801112 13.0597065,5.93704908 13.4775433,5.51921252 C13.8958659,5.10036509 14.4573091,4.86801506 15.0493444,4.86801506 C15.6405629,4.86801506 16.2015333,5.10017907 16.6195442,5.51818999 C16.9594577,5.85810343 17.174514,6.2906864 17.244187,6.75354823 C17.7070879,6.82368678 18.1413913,7.0393077 18.4787,7.37734577 C19.3462515,8.24437057 19.3464144,9.6524871 18.4796474,10.5192538 C18.06136,10.938066 17.5002196,11.1707408 16.9084254,11.1707408 C16.4449314,11.1707408 16.0008073,11.0280677 15.6295593,10.7661655 L10.7654859,15.6302373 C11.0276717,16.0020911 11.1698722,16.446206 11.1698722,16.909294 C11.1698722,17.5008222 10.9374041,18.0620764 10.5191182,18.4803624 C10.1008323,18.8986483 9.53957802,19.1311164 8.94804982,19.1311164 C8.35652756,19.1311164 7.79556113,18.8986525 7.37651509,18.4796057 C7.0365334,18.138896 6.82159255,17.7058254 6.75229048,17.2433885 C6.29010845,17.1728453 5.85615031,16.9588022 5.51725619,16.6206365 Z M7.30843365,16.2549531 C7.42308808,16.2549531 7.53339953,16.3001199 7.61562644,16.3820573 C7.71146133,16.4776027 7.75691775,16.6128138 7.73925634,16.7468669 C7.68800928,17.1284692 7.81395543,17.5022542 8.08437773,17.7732556 C8.31513424,18.0040121 8.62174796,18.1311164 8.94804982,18.1311164 C9.27435168,18.1311164 9.58125493,18.0040121 9.81201144,17.7732556 C10.0427679,17.5424991 10.1698722,17.2355958 10.1698722,16.909294 C10.1698722,16.582413 10.0427679,16.2757993 9.81201144,16.0447533 C9.77929439,16.0120362 9.74570875,15.9830831 9.71125452,15.9558671 C9.61397198,15.8788518 9.55403898,15.7641974 9.5468007,15.640278 C9.53985194,15.5163585 9.58588743,15.3953344 9.67361544,15.3078959 L15.3070274,9.67448401 C15.3947554,9.58675601 15.5163585,9.53782521 15.6391198,9.5479588 C15.7627497,9.55490756 15.8774042,9.61426149 15.9544195,9.71154403 C15.9813459,9.74512967 16.00972,9.77842578 16.0412789,9.80969516 C16.2752203,10.0436365 16.5821235,10.1707408 16.9084254,10.1707408 C17.2347272,10.1707408 17.541341,10.0436365 17.7720975,9.81259048 C18.2486661,9.33602184 18.2486661,8.56123589 17.7718079,8.08466725 C17.5037019,7.81598213 17.1238367,7.68800927 16.7457088,7.73983538 C16.6116557,7.75807586 16.4767341,7.71204037 16.3811888,7.61620548 C16.2856434,7.5203706 16.2398974,7.38573851 16.2578484,7.25139595 C16.3088059,6.86979361 16.1828598,6.49571907 15.9124375,6.22529677 C15.6819705,5.9948298 15.3753568,5.86801506 15.0493444,5.86801506 C14.722753,5.86801506 14.4158498,5.9948298 14.1850933,6.22587583 C13.9543368,6.45663234 13.827522,6.76324606 13.827522,7.08954792 C13.827522,7.41584977 13.9543368,7.72275303 14.1850933,7.95293047 C14.2195475,7.98854283 14.2528436,8.01662737 14.2864293,8.04297473 C14.3837118,8.11999007 14.4433553,8.2346445 14.450304,8.35856392 C14.4575423,8.48219382 14.4115068,8.60321793 14.3237788,8.69065641 L8.69007737,14.3243579 C8.60234936,14.4120859 8.48306243,14.4572528 8.35769535,14.4511726 C8.23377592,14.4439343 8.1191215,14.3840013 8.04210615,14.2867188 C8.01546927,14.2528436 7.98738472,14.2201266 7.9558258,14.1888572 C7.72188445,13.9552054 7.41556026,13.8281011 7.08925841,13.8281011 C6.76295655,13.8281011 6.45605329,13.9552054 6.22558632,14.1859619 C5.74901768,14.6625305 5.74901768,15.4373165 6.22500726,15.9141746 C6.49369237,16.1822807 6.873268,16.3070687 7.25081691,16.2590065 C7.26992598,16.2561112 7.28932458,16.2549531 7.30843365,16.2549531 Z" id="path-1"></path>
    </defs>
    <g id="Icon/x-ray-alt" stroke="none" stroke-width="1" fill="none" fill-rule="evenodd">
        <mask id="mask-2" fill="white">
            <use xlink:href="#path-1"></use>
        </mask>
        <use id="Shape" fill="#7A7E81" fill-rule="nonzero" xlink:href="#path-1"></use>
    </g>
</svg>